<svg xmlns="http://www.w3.org/2000/svg" xmlns:xlink="http://www.w3.org/1999/xlink" x="0px" y="0px"
	 viewBox="0 0 250 250" enable-background="new 0 0 250 250" xml:space="preserve">
    <defs>
        <symbol id="head-spartan" viewBox="0 0 250 250">
            <title>Spartan Head</title>
				<polygon points="124,64.4 124,64.5 124,64.4 "/>
				<polygon points="124,64.4 124,64.4 124,64.4 "/>
				<polygon points="124,64.4 124,64.5 124,64.4 "/>
				<polygon points="124,64.4 124,64.5 124,64.4 "/>
				<polygon points="124,64.4 124,64.4 124,64.4 "/>
				<path d="M198.9,71.7c1.7-3.6,2.6-7.5,2.6-11.4c0-17.8-18.8-36.4-45.5-45l0,0L125,2.1c-0.4-0.2-0.8-0.2-1.2,0L92.4,15.6
					C66.3,24.3,48,42.7,48,60.3c0,3.9,0.9,7.8,2.6,11.4l-1.4-1.6L48,177.2l64.5,65.8L104,139.5l-37.8-26.8l-4.9-24.4l16.7,6.9l3.4,1.4
					l35.9,14.8l1.2,34.1l-2.4,13.4l8.5,6.1l0-4.3l0,4.3l8.5-6.1l-2.4-13.4l1.2-34.1l35.9-14.8l3.4-1.4l16.7-6.9l-4.9,24.4l-37.8,26.8
					L136.9,243l64.5-65.8l-1.2-107.2L198.9,71.7z M124.7,17L124.7,17L124.7,17L124.7,17L124.7,17L124.7,17L124.7,17z"/>
				<polygon points="124,64.4 124,64.4 124,64.4 "/>
				<path d="M124,0"/>
				<path fill="none" stroke="#000000" stroke-width="0.25" stroke-miterlimit="10" d="M149.6,63"/>
        </symbol>

        <symbol id="head-hallo" viewBox="0 0 250 250">
            <title>Hallo Head</title>
            <path d="M147.1,0.2c0.2,0,0.5,0,0.7,0c3.3,1,6.6,2,9.9,3.1c23.8,8.3,42.2,23.2,54.4,45.4c1.5,2.7,2.8,5.4,4.2,8.1
			c0,0.4,0,0.8,0,1.2c-0.1,0.1-0.2,0.2-0.2,0.4c-2.5,11.3-5,22.6-7.4,33.9c-0.4,1.9-0.8,3.8-1.3,5.8c3,0.2,4,1.1,4.1,3.9
			c0.1,3.7,0.2,7.3,0.2,11c0.1,6.2,0.2,12.3,0.4,18.5c0.2,5.5-1.2,10.4-4.3,15c-3.6,5.3-7.1,10.6-10.4,16.1
			c-5.8,9.7-10.4,20-13,31.1c-0.1,0.4-0.4,0.9-0.6,1.2c-1.9,2.3-3.9,4.6-5.9,7c-8.8,10.4-17.4,21-27.2,30.5
			c-6.5,6.2-13.3,11.9-21.4,16.1c-1.3,0.6-2.5,1.3-3.8,1.9c-0.2,0-0.3,0-0.5,0c-0.3-0.2-0.5-0.3-0.8-0.4c-3-1.6-6.2-3-9.1-4.8
			c-8.4-5.2-15.6-11.9-22.1-19.3c-9-10.2-17.6-20.7-26.4-31c-0.3-0.3-0.5-0.8-0.5-1.2c-1.7-7.5-4.5-14.6-7.9-21.5
			c-4.4-8.9-9.6-17.3-15.4-25.4c-3-4.2-4.6-8.8-4.4-14c0.2-6.4,0.3-12.8,0.5-19.2c0.1-4,0.2-7.9,0.3-11.9c0-2.1,1.2-3.3,3.3-3.4
			c0.2,0,0.5-0.1,0.7-0.1c-2.9-13.3-5.8-26.6-8.7-39.8c-0.1-0.5-0.1-1.2,0.1-1.7c4.8-10.7,11.1-20.5,19.3-28.9
			c10.5-10.8,23-18.5,37-23.6c3.9-1.4,7.9-2.6,11.8-3.8c0.2,0,0.5,0,0.7,0c1.5,1.2,3,2.5,4.5,3.7c0.3,0.2,0.7,0.3,1.1,0.3
			c10.8,0,21.6,0,32.4,0c0.4,0,1-0.2,1.3-0.4C144.2,2.6,145.7,1.4,147.1,0.2z M51.4,100.1c0.7,1.4,1.6,2.6,2.2,4
			c0.9,2.3,1.9,4.6,2.5,7c0.7,2.8,2.2,5,4.3,6.9c1.9,1.9,3.9,3.7,6,5.4c8.2,6.5,17.4,11.4,27.1,15.3c4.4,1.8,9,3.1,13.5,4.7
			c0.9,0.3,1.3,0,1.6-0.9c2.2-5.5,4.3-11,6.7-16.3c1.9-4.1,5.4-6.1,9.9-6.1c4.5,0,8,2.1,9.9,6.1c2.3,5,4.4,10.3,6.4,15.4
			c0.8,2.1,0.7,2.2,3,1.6c5.9-1.5,11.4-3.8,16.9-6.3c9.6-4.4,18.9-9.6,26.7-16.8c3-2.8,5.5-5.8,6.5-9.9c0.9-3.5,2.1-7,4.5-9.9
			c-8.8-4.3-17.6-8.5-26.4-12.7c-0.4-0.2-1-0.2-1.5-0.1c-8.4,1.8-16.9,3.5-25.3,5.4c-12.4,2.8-24.9,3.3-37.3,0.8
			c-9.7-1.9-19.4-4.1-29.2-6.1c-0.7-0.2-1.7-0.1-2.4,0.3c-4.1,1.9-8.1,3.8-12.1,5.8C60.5,95.7,55.9,98,51.4,100.1z"/>
        </symbol>

        <symbol id="head-deadpool" viewBox="0 0 250 250">
            <title>Deadpool Head</title>
            <path d="M114.7,1.2c7,0,13.9,0,20.9,0c0.1,0.1,0.2,0.2,0.3,0.2c3.6,0.4,7.3,0.7,10.9,1.2c9.6,1.5,18.7,4.4,27.3,8.8
			c10.3,5.2,19.1,12.2,27,20.6c3,3.2,5.6,6.6,6.6,11c0.7,2.9,1,5.9,1.5,8.8c1.7,11.1,3.5,22.2,5.2,33.2c0.4,2.5,1.2,4.9,0.1,7.4
			c-0.1,0.2,0.2,0.7,0.4,1c0.7,1.1,1.4,2.1,2.2,3.2c0,0.3,0,0.6,0,1c-0.1,0.3-0.4,0.6-0.4,0.9c-2.4,11.5-4.7,23-7.1,34.5
			c-0.9,4.3-1.9,8.5-2.9,12.7c-0.2,0.7-0.5,1.4-1,1.8c-2.5,2-5.4,3.3-8.6,3.7c-0.9,0.1-1.1,0.4-1.3,1.1c-4.3,14.2-8.8,28.3-13,42.5
			c-4.4,14.7-12.7,26.7-25.5,35.3c-6.3,4.2-12.7,8.1-19.2,12c-8.6,5.2-17.4,5.2-26,0c-5.5-3.3-11-6.8-16.5-10.2
			c-13.2-8.2-22.5-19.6-27.2-34.4c-4.1-12.8-7.9-25.7-11.9-38.5c-0.8-2.6-1.6-5.2-2.3-7.3c-2.4-0.8-4.4-1.5-6.4-2.2
			c-2.9-1.1-4.4-3.1-5-6.2c-2.6-13.2-5.4-26.3-8.1-39.4c-0.4-2-1-4.1-1.4-6.1c0-0.6,0-1.1,0-1.7c0.7-0.9,1.5-1.8,2.2-2.8
			c0.2-0.3,0.3-0.8,0.2-1.2c-0.1-1-0.5-2-0.4-2.9c0.2-2.1,0.6-4.2,0.9-6.3c1.7-11,3.5-22,5.2-33c0.5-3.4,0.9-6.9,2.2-10.1
			c1.7-4,4.6-7,7.6-9.9C67.9,13.1,88.1,3.7,111.6,1.6C112.7,1.5,113.7,1.3,114.7,1.2z M68.3,137.3c0.2,0.8,0.3,1.5,0.4,2.2
			c3,14.5,6,29,9,43.5c0.6,3,1.1,6.2,2.4,9c5.2,11.2,12.8,20.8,21.7,29.4c12.9,12.4,33.5,12.5,46.5,0.2c7.7-7.3,14.3-15.5,19.5-24.8
			c1.4-2.4,2.8-4.8,3.4-7.5c3.3-15.2,6.4-30.5,9.6-45.8c0.4-2.1,0.8-4.2,1.3-6.3c-0.2-0.1-0.3-0.2-0.4-0.2
			c-18.5-6.2-37.1-12.4-55.6-18.5c-0.6-0.2-1.3-0.1-1.9,0.1c-13.1,4.3-26.3,8.7-39.4,13.1C79.3,133.6,73.9,135.4,68.3,137.3z
			 M116.3,110.1c0-0.7,0.1-1.5,0-2.2c0-0.3-0.4-0.7-0.7-0.8c-7.5-1.4-14.9-2.9-22.4-4c-3.8-0.6-7.8-1.1-11.6-0.7
			c-6.8,0.6-13.2,3.2-19.2,6.5c-0.6,0.3-1.1,0.8-1.8,1.3c1.5,0.6,2.7,1.1,3.9,1.7c3.8,2,7.5,4,11.3,6.1c3.1,1.7,6.3,1.9,9.7,0.8
			c3.2-1.1,6.4-2.2,9.7-3.1C102.1,113.8,109.1,112,116.3,110.1z M134.3,107.3c0,0.6,0.1,1.2,0,1.7c-0.2,1,0.3,1.3,1.2,1.5
			c10.2,2.4,20.4,4.9,30.3,8.4c2.7,0.9,5.5,0.7,8-0.6c5.3-2.7,10.5-5.5,15.8-8.3c-0.5-0.3-1-0.8-1.6-1.1c-3.1-1.4-6.2-3-9.4-4.2
			c-5.4-2-11-3.2-16.9-2.2c-5.5,0.9-10.9,1.8-16.4,2.7C141.7,105.9,138,106.6,134.3,107.3z"/>
        </symbol>

		<symbol id="head-black-panther" viewBox="0 0 250 250">
			<title>Black Panther Head</title>
			<path d="M45.6,61.4c0-4.2,0-8.3,0-12.5c0.1-0.3,0.2-0.6,0.2-0.9c0.5-7.9,1-15.9,1.6-23.8c0.4-5.2,1-10.4,1.5-15.6
			c0.4,0,0.8,0,1.2,0c1.8,0.5,3.6,1,5.4,1.6c6.8,2.5,13.1,6.2,19.4,9.8c0.5,0.3,1,0.5,1.6,0.8c-0.2,0.2-0.5,0.3-0.8,0.5
			c-0.3,0.2-0.6,0.3-0.8,0.5c-0.2,0.2-0.5,0.5-0.5,0.8c-0.7,6.4-0.5,12.7,0.8,19c2.6,12.1,9.3,21.7,18.8,29.3
			c6.8,5.5,14.4,9.5,22.5,12.8c0.6,0.2,1,0.4,1.1,1.2c0.4,5.2,0.8,10.4,1.2,15.7c0.2,2.5,0.4,5,0.6,7.4c1.1,0,2,0,3,0
			c-0.6-8.5-1.3-16.9-2-25.3c0-0.4-0.6-1-1-1.2c-8.6-4.3-16.7-9.3-23.8-15.8C85,56.3,78,44.7,76.9,30.1c-0.2-3.2,0-6.3,0-9.5
			c0.9-0.2,1.5-0.3,2.1-0.4c13.7-2.2,27.3-4.5,41-6.7c1.7-0.3,3.5-0.8,5.2-0.7c3.6,0.3,7.1,1.1,10.6,1.7c10,1.6,20.1,3.3,30.1,4.9
			c2.2,0.4,4.5,0.7,6.7,1.1c0.8,8.6-0.2,16.8-3.5,24.7c-3.9,9.3-10.3,16.8-18,23.1c-6.5,5.4-13.7,9.7-21.2,13.5
			c-0.4,0.2-0.9,0.7-0.9,1.1c-0.6,7.2-1.1,14.4-1.7,21.6c-0.1,1.2-0.2,2.4-0.2,3.6c1.1,0,2,0,3,0c0.6-7.7,1.3-15.3,1.9-23
			c0.1-0.7,0.3-1.1,1-1.3c7.4-3,14.5-6.7,20.9-11.6c7.1-5.3,12.9-11.7,16.7-19.7c4.2-8.7,5.4-18,4.8-27.5c-0.1-1.7-0.1-3.3-2-4
			c0,0,0-0.1,0-0.2c0.5-0.3,1.1-0.6,1.6-0.9c6-3.5,12-6.9,18.4-9.4c1.8-0.7,3.7-1.2,5.6-1.8c0.6,0,1.1,0,1.7,0c0,0.2-0.1,0.3,0,0.5
			c0.6,6.2,1.2,12.5,1.8,18.7c1,10.7,1.6,21.4,1.3,32.2c-0.1,2-0.4,4.1-0.8,6.1c-0.3,1.5-1.3,2.8-1.3,4.3
			c-0.3,5.9-0.3,11.7-0.5,17.6c-0.2,11-0.5,22-0.5,33c0,2.7-0.5,4.9-2.4,6.8c-0.4,0.4-0.7,1.1-0.7,1.7c-0.4,8.9-1.3,17.7-3.1,26.4
			c-4.5,21.8-14,41.2-28.3,58.3c-11.7,13.9-25.6,25.3-40.8,35.2c-0.6,0.4-1.1,0.3-1.6-0.1c-12.7-8.2-24.6-17.6-35-28.6
			c-9.3-9.8-17-20.7-23-32.8c-8.6-17.4-13-35.9-13.8-55.2c-0.1-2.7-0.7-4.9-2.5-6.9c-0.4-0.5-0.7-1.3-0.7-2
			c-0.1-3.8-0.2-7.5-0.2-11.3c-0.3-13.8-0.5-27.6-0.8-41.5c0-0.7-0.1-1.3-0.4-2c-0.9-2.3-2.1-4.6-1.8-7.2
			C45.8,61.6,45.7,61.5,45.6,61.4z M65.5,104.8c-0.3,2.3,0.5,4.6,1.8,6.9c1.3,2.2,2.5,4.5,3.7,6.8c1,1.9,2.5,2.9,4.6,3.2
			c7,0.7,14,1.5,21,2.2c1.4,0.1,2.8,0.6,4.2,0.3c2.5-0.4,4.9-1.3,7-2.9c1.3-1,2.3-2.1,2.7-3.7c0.6-2-0.1-3.5-2-4.3
			c-10.5-4.7-21-9.3-31.5-14c-1.5-0.7-3-1.1-4.6-0.9c-1.3,0.2-2.6,0.3-3.9,0.5c-1.6,0.2-2.8,1.4-2.9,3
			C65.5,102.8,65.5,103.6,65.5,104.8z M184.3,104.3c0-0.7,0-1.4,0-2.2c-0.1-1.8-1.2-3.1-3-3.3c-0.4,0-0.9-0.1-1.3-0.2
			c-3.1-0.6-5.9-0.1-8.8,1.3c-4.7,2.3-9.6,4.3-14.4,6.4c-5.1,2.2-10.1,4.5-15.2,6.8c-2.3,1-3,2.8-2,5.1c0.3,0.7,0.7,1.3,1.2,1.9
			c1.4,1.6,3.3,2.6,5.4,3.2c1.1,0.4,2.3,0.9,3.4,0.8c8.2-0.8,16.4-1.7,24.5-2.6c2.1-0.2,3.6-1.3,4.6-3.2c1.2-2.3,2.3-4.5,3.6-6.7
			C183.8,109.4,184.6,107,184.3,104.3z M92.4,221.3c0-0.5,0.1-0.8,0.1-1c0-16.6,0-33.3,0-49.9c0-1.5-0.6-2.6-1.6-3.7
			c-4-4.3-8.2-8.5-11.9-13.1c-11.2-13.8-19.5-29.3-26.6-45.5c-0.2-0.5-0.4-1-0.6-1.4c-0.2,2.8-0.2,5.5-0.2,8.2
			c0,0.5,0.2,0.9,0.4,1.4c3.9,8.5,8.1,16.9,13,24.9c5.4,8.8,11.3,17.2,18.8,24.5c2,2,2.9,4.1,2.9,6.9c-0.1,13.9,0,27.8,0,41.7
			c0,0.4,0,1,0.3,1.3C88.6,217.4,90.4,219.2,92.4,221.3z M198.2,106.5c-2.6,5.4-5,10.6-7.6,15.8c-8.3,16.4-18.4,31.6-31.8,44.4
			c-1.1,1.1-1.6,2.4-1.6,4c0,16.5,0,33,0,49.4c0,0.3,0,0.7,0.1,1.2c1.8-1.8,3.4-3.5,5.1-5c0.7-0.6,0.9-1.3,0.9-2.2
			c0-14,0-28.1,0-42.1c0-2.3,0.8-4.2,2.4-5.9c3.6-4,7.3-7.9,10.6-12.2c9-11.7,15.7-24.7,21.7-38c0.1-0.3,0.2-0.6,0.2-0.9
			C198.2,112.1,198.2,109.4,198.2,106.5z M153.3,126.2c-1.1,0-2,0.1-3,0c-0.8-0.1-1.2,0.2-1.6,1c-3,6-6,12-9,18.1
			c-0.4,0.7-0.8,0.9-1.5,0.9c-8.9,0-17.7,0-26.6,0c-0.7,0-1.1-0.2-1.4-0.9c-2.6-5.3-5.3-10.6-7.9-15.8c-1.7-3.4-1.7-3.4-5.5-3.2
			c0,0-0.1,0-0.2,0c0.1,0.2,0.2,0.4,0.3,0.6c4.6,9.5,9.2,19,13.8,28.5c0.6,1.2,0.9,2.4,0.9,3.8c-0.1,3,0,6,0,9c1.1,0,2,0,3,0
			c0-3.6,0.2-7.2-0.1-10.7c-0.2-2.4-1.2-4.8-1.8-7.2c8.2,0,16.3,0,24.8,0c-2.9,5.8-2.1,11.9-2.1,17.9c1.1,0,2,0,3,0
			c0-3.4,0-6.7,0-10c0-0.5,0.1-1,0.3-1.5c3.2-6.7,6.5-13.4,9.7-20.1C149.9,133.2,151.5,129.8,153.3,126.2z M72.3,22.4
			c-1.7,0.3-3.2,0.9-3.8,2.9c-0.9,2.7-2.2,5.3-3,8c-2.8,9.2-2.9,18.3,1.2,27.2c3.4,7.4,8.7,13.1,15,18c8.4,6.6,17.9,11.3,27.7,15.3
			c0.9,0.4,1.2,0.8,1.3,1.7c0.2,3.5,0.4,6.9,0.8,10.4c0.2,1.8-0.2,3-1.9,3.7c-0.4,0.1-0.6,0.4-1,0.7c1.1,0.7,2,1.3,3.1,2.1
			c1.2-1.2,2.4-2.4,3.5-3.7c0.2-0.2,0.3-0.7,0.3-1.1c-0.3-4.5-0.6-9-0.8-13.5c0-0.7-0.3-1-1-1.3c-4-1.8-8-3.5-11.9-5.5
			c-8.2-4.2-15.8-9.2-22.2-15.8C68.4,60,64.7,46.7,69.1,31.3C70,28.3,71.2,25.3,72.3,22.4z M141.3,110.3c-0.8-0.5-1.4-1-2-1.3
			c-0.8-0.4-1-1-0.9-1.9c0.3-3.9,0.6-7.7,0.8-11.6c0-0.9,0.3-1.2,1.1-1.5c6.1-2.5,12.1-5.3,17.8-8.6c7.5-4.4,14.3-9.5,19.8-16.3
			c5-6.3,8-13.4,8.3-21.5c0.3-8.1-1.9-15.5-5.2-22.8c-0.8-1.8-2.2-2-3.8-2.5c0.3,0.6,0.4,0.9,0.6,1.3c2.5,5.8,4.3,11.8,4.6,18.1
			c0.5,10-2.8,18.7-9,26.3c-5.5,6.8-12.3,12-19.8,16.2c-5.7,3.2-11.6,5.8-17.4,8.6c-0.5,0.2-1,0.3-1,1.1c-0.3,4.6-0.6,9.2-0.9,13.7
			c0,0.3,0,0.6,0.2,0.8c1.3,1.3,2.6,2.6,3.8,3.9C139.3,111.6,140.2,111,141.3,110.3z M126.7,50.6c0.7-11.7,1.3-23.3,2-34.8
			c-2.3-1-4.5-1.2-6.7-0.4c-0.8,0.3-0.9,0.6-0.9,1.3c0.5,9.1,1,18.1,1.5,27.2c0.1,2.2,0.3,4.4,0.4,6.7
			C124.3,50.6,125.4,50.6,126.7,50.6z"/>
		</symbol>

		<symbol id="head-robocop" viewBox="0 0 250 250">
			<title>Robocop Head</title>
			<path d="M208.8,67.9c0,17.4,0,34.7,0,52.1c-0.1,0.1-0.2,0.1-0.2,0.2c-0.7,2.1-2.1,3.5-4.1,4.3c-0.3,0.1-0.6,0.7-0.7,1.2
			c-0.4,5.4-0.7,10.8-1,16.1c-0.7,11.1-1.4,22.2-2.1,33.4c-0.5,8.5-3.7,15.9-9.7,22.1c-3.8,3.9-8.3,6.7-12.8,9.6
			c-12.6,8.2-26.2,14.6-40.1,20.1c-6.9,2.7-14.1,3.1-21.2,1.1c-4.7-1.4-9.3-3.4-13.8-5.4c-13.6-6-26.7-12.9-38.6-21.9
			c-8.1-6.1-12.8-14.4-13.5-24.5c-1.2-16.9-2.1-33.8-3.2-50.7c0-0.4-0.4-0.9-0.8-1.1c-1.9-0.8-3.2-2-3.9-3.9c0-0.1-0.2-0.2-0.3-0.3
			c0-17.8,0-35.5,0-53.3c0.1-0.3,0.2-0.5,0.2-0.8c0.5-6.2,1.4-12.4,3.1-18.4c3.4-11.9,9.4-22,19-29.9c8.6-7,18.5-11.2,29.2-13.7
			c7.5-1.8,15.1-2.7,22.8-3.1c0.2,0,0.4-0.2,0.6-0.2c5.3,0,10.6,0,15.8,0c0.2,0.1,0.3,0.2,0.5,0.2c3.7,0.3,7.4,0.6,11.1,1
			c8.8,1,17.4,3.1,25.6,6.5c14,5.9,24.6,15.4,31.1,29.3c3.8,8.3,5.8,17.1,6.6,26.2C208.4,65.3,208.6,66.6,208.8,67.9z M54.7,125.7
			c0.1,0.3,0.2,0.6,0.2,0.8c6.6,17.7,13.2,35.5,19.9,53.2c2.8,7.5,10.5,12.1,18.2,11.1c8.1-1.1,16.1-2.4,24.2-3.7
			c4-0.6,7.9-1.3,11.9-0.8c9.1,1.3,18.2,2.7,27.4,4.2c9.2,1.5,17.1-2.8,20.3-11.2c6.5-17.5,13.1-35,19.6-52.5
			c0.1-0.3,0.2-0.6,0.3-1.1c-3.6,0.3-7,0.6-10.4,0.9c-8.1,0.7-16.2,1.4-24.2,2.1c-8.1,0.7-16.2,1.2-24.2,2.1
			c-8.1,0.9-16.1,0.8-24.2,0c-8-0.8-16.1-1.4-24.1-2.1c-8.2-0.7-16.3-1.4-24.5-2.1C61.6,126.3,58.2,126,54.7,125.7z M125.8,84.3
			c-7.7-0.2-15.2-0.4-22.8-0.5c-5.1-0.1-10.1-0.2-15.2-0.3C78.4,83.3,69,83,59.6,82.8c-2.1,0-3.6,1-4.4,3c-1.7,4.2-1.6,8.4,0,12.6
			c0.8,2.2,2.4,3.4,4.8,3.5c7.4,0.2,14.8,0.5,22.3,0.8c9.8,0.3,19.6,0.6,29.3,1c10,0.5,20,0.3,30.1-0.1c10.3-0.4,20.7-0.8,31-1.1
			c6.4-0.2,12.9-0.4,19.3-0.7c2.1-0.1,3.5-1.1,4.3-3c1.8-4.3,1.9-8.7,0.1-13.1c-0.8-2-2.3-3-4.5-3c-2.8,0-5.6,0.1-8.4,0.2
			c-8.2,0.2-16.5,0.3-24.7,0.5C147.8,83.8,136.7,84.1,125.8,84.3z M45.8,58.8c0.4,0,0.6,0,0.8,0c11.2,0.1,22.3,0.1,33.5,0.2
			c11.2,0.1,22.5,0.1,33.7,0.2c8.6,0,17.3,0,25.9-0.1c17.8-0.1,35.7-0.2,53.5-0.2c3.9,0,7.8,0,11.6,0c0.3,0,0.6,0,0.8-0.1
			c0-1,0-2,0-2.9c-53.3,0-106.6,0-159.9,0C45.8,56.8,45.8,57.7,45.8,58.8z M50.7,42.8c50.1,0,100,0,150.1,0c-0.4-0.6-0.7-1-0.9-1.4
			c-0.6-1.3-1.6-1.7-3-1.7c-47.6,0-95.1,0-142.7,0c-0.3,0-0.6-0.1-0.8,0c-0.3,0.1-0.8,0.2-1,0.5C51.8,41,51.3,41.8,50.7,42.8z"/>
		</symbol>
    </defs>
</svg>