<svg xmlns="http://www.w3.org/2000/svg" xmlns:xlink="http://www.w3.org/1999/xlink" x="0px" y="0px"
	 viewBox="0 0 250 250" enable-background="new 0 0 250 250" xml:space="preserve">
    <defs>
        <symbol id="head--1" viewBox="0 0 250 250">
            <title>Spartan Head</title>
				<polygon points="124,64.4 124,64.5 124,64.4 "/>
				<polygon points="124,64.4 124,64.4 124,64.4 "/>
				<polygon points="124,64.4 124,64.5 124,64.4 "/>
				<polygon points="124,64.4 124,64.5 124,64.4 "/>
				<polygon points="124,64.4 124,64.4 124,64.4 "/>
				<path d="M198.9,71.7c1.7-3.6,2.6-7.5,2.6-11.4c0-17.8-18.8-36.4-45.5-45l0,0L125,2.1c-0.4-0.2-0.8-0.2-1.2,0L92.4,15.6
					C66.3,24.3,48,42.7,48,60.3c0,3.9,0.9,7.8,2.6,11.4l-1.4-1.6L48,177.2l64.5,65.8L104,139.5l-37.8-26.8l-4.9-24.4l16.7,6.9l3.4,1.4
					l35.9,14.8l1.2,34.1l-2.4,13.4l8.5,6.1l0-4.3l0,4.3l8.5-6.1l-2.4-13.4l1.2-34.1l35.9-14.8l3.4-1.4l16.7-6.9l-4.9,24.4l-37.8,26.8
					L136.9,243l64.5-65.8l-1.2-107.2L198.9,71.7z M124.7,17L124.7,17L124.7,17L124.7,17L124.7,17L124.7,17L124.7,17z"/>
				<polygon points="124,64.4 124,64.4 124,64.4 "/>
				<path d="M124,0"/>
				<path fill="none" stroke="#000000" stroke-width="0.25" stroke-miterlimit="10" d="M149.6,63"/>
        </symbol>

        <symbol id="head--2" viewBox="0 0 250 250">
            <title>Hallo Head</title>
            <path d="M147.1,0.2c0.2,0,0.5,0,0.7,0c3.3,1,6.6,2,9.9,3.1c23.8,8.3,42.2,23.2,54.4,45.4c1.5,2.7,2.8,5.4,4.2,8.1
			c0,0.4,0,0.8,0,1.2c-0.1,0.1-0.2,0.2-0.2,0.4c-2.5,11.3-5,22.6-7.4,33.9c-0.4,1.9-0.8,3.8-1.3,5.8c3,0.2,4,1.1,4.1,3.9
			c0.1,3.7,0.2,7.3,0.2,11c0.1,6.2,0.2,12.3,0.4,18.5c0.2,5.5-1.2,10.4-4.3,15c-3.6,5.3-7.1,10.6-10.4,16.1
			c-5.8,9.7-10.4,20-13,31.1c-0.1,0.4-0.4,0.9-0.6,1.2c-1.9,2.3-3.9,4.6-5.9,7c-8.8,10.4-17.4,21-27.2,30.5
			c-6.5,6.2-13.3,11.9-21.4,16.1c-1.3,0.6-2.5,1.3-3.8,1.9c-0.2,0-0.3,0-0.5,0c-0.3-0.2-0.5-0.3-0.8-0.4c-3-1.6-6.2-3-9.1-4.8
			c-8.4-5.2-15.6-11.9-22.1-19.3c-9-10.2-17.6-20.7-26.4-31c-0.3-0.3-0.5-0.8-0.5-1.2c-1.7-7.5-4.5-14.6-7.9-21.5
			c-4.4-8.9-9.6-17.3-15.4-25.4c-3-4.2-4.6-8.8-4.4-14c0.2-6.4,0.3-12.8,0.5-19.2c0.1-4,0.2-7.9,0.3-11.9c0-2.1,1.2-3.3,3.3-3.4
			c0.2,0,0.5-0.1,0.7-0.1c-2.9-13.3-5.8-26.6-8.7-39.8c-0.1-0.5-0.1-1.2,0.1-1.7c4.8-10.7,11.1-20.5,19.3-28.9
			c10.5-10.8,23-18.5,37-23.6c3.9-1.4,7.9-2.6,11.8-3.8c0.2,0,0.5,0,0.7,0c1.5,1.2,3,2.5,4.5,3.7c0.3,0.2,0.7,0.3,1.1,0.3
			c10.8,0,21.6,0,32.4,0c0.4,0,1-0.2,1.3-0.4C144.2,2.6,145.7,1.4,147.1,0.2z M51.4,100.1c0.7,1.4,1.6,2.6,2.2,4
			c0.9,2.3,1.9,4.6,2.5,7c0.7,2.8,2.2,5,4.3,6.9c1.9,1.9,3.9,3.7,6,5.4c8.2,6.5,17.4,11.4,27.1,15.3c4.4,1.8,9,3.1,13.5,4.7
			c0.9,0.3,1.3,0,1.6-0.9c2.2-5.5,4.3-11,6.7-16.3c1.9-4.1,5.4-6.1,9.9-6.1c4.5,0,8,2.1,9.9,6.1c2.3,5,4.4,10.3,6.4,15.4
			c0.8,2.1,0.7,2.2,3,1.6c5.9-1.5,11.4-3.8,16.9-6.3c9.6-4.4,18.9-9.6,26.7-16.8c3-2.8,5.5-5.8,6.5-9.9c0.9-3.5,2.1-7,4.5-9.9
			c-8.8-4.3-17.6-8.5-26.4-12.7c-0.4-0.2-1-0.2-1.5-0.1c-8.4,1.8-16.9,3.5-25.3,5.4c-12.4,2.8-24.9,3.3-37.3,0.8
			c-9.7-1.9-19.4-4.1-29.2-6.1c-0.7-0.2-1.7-0.1-2.4,0.3c-4.1,1.9-8.1,3.8-12.1,5.8C60.5,95.7,55.9,98,51.4,100.1z"/>
        </symbol>

        <symbol id="head--3" viewBox="0 0 250 250">
            <title>Captain Head</title>
            <path d="M114.7,1.2c7,0,13.9,0,20.9,0c0.1,0.1,0.2,0.2,0.3,0.2c3.6,0.4,7.3,0.7,10.9,1.2c9.6,1.5,18.7,4.4,27.3,8.8
			c10.3,5.2,19.1,12.2,27,20.6c3,3.2,5.6,6.6,6.6,11c0.7,2.9,1,5.9,1.5,8.8c1.7,11.1,3.5,22.2,5.2,33.2c0.4,2.5,1.2,4.9,0.1,7.4
			c-0.1,0.2,0.2,0.7,0.4,1c0.7,1.1,1.4,2.1,2.2,3.2c0,0.3,0,0.6,0,1c-0.1,0.3-0.4,0.6-0.4,0.9c-2.4,11.5-4.7,23-7.1,34.5
			c-0.9,4.3-1.9,8.5-2.9,12.7c-0.2,0.7-0.5,1.4-1,1.8c-2.5,2-5.4,3.3-8.6,3.7c-0.9,0.1-1.1,0.4-1.3,1.1c-4.3,14.2-8.8,28.3-13,42.5
			c-4.4,14.7-12.7,26.7-25.5,35.3c-6.3,4.2-12.7,8.1-19.2,12c-8.6,5.2-17.4,5.2-26,0c-5.5-3.3-11-6.8-16.5-10.2
			c-13.2-8.2-22.5-19.6-27.2-34.4c-4.1-12.8-7.9-25.7-11.9-38.5c-0.8-2.6-1.6-5.2-2.3-7.3c-2.4-0.8-4.4-1.5-6.4-2.2
			c-2.9-1.1-4.4-3.1-5-6.2c-2.6-13.2-5.4-26.3-8.1-39.4c-0.4-2-1-4.1-1.4-6.1c0-0.6,0-1.1,0-1.7c0.7-0.9,1.5-1.8,2.2-2.8
			c0.2-0.3,0.3-0.8,0.2-1.2c-0.1-1-0.5-2-0.4-2.9c0.2-2.1,0.6-4.2,0.9-6.3c1.7-11,3.5-22,5.2-33c0.5-3.4,0.9-6.9,2.2-10.1
			c1.7-4,4.6-7,7.6-9.9C67.9,13.1,88.1,3.7,111.6,1.6C112.7,1.5,113.7,1.3,114.7,1.2z M68.3,137.3c0.2,0.8,0.3,1.5,0.4,2.2
			c3,14.5,6,29,9,43.5c0.6,3,1.1,6.2,2.4,9c5.2,11.2,12.8,20.8,21.7,29.4c12.9,12.4,33.5,12.5,46.5,0.2c7.7-7.3,14.3-15.5,19.5-24.8
			c1.4-2.4,2.8-4.8,3.4-7.5c3.3-15.2,6.4-30.5,9.6-45.8c0.4-2.1,0.8-4.2,1.3-6.3c-0.2-0.1-0.3-0.2-0.4-0.2
			c-18.5-6.2-37.1-12.4-55.6-18.5c-0.6-0.2-1.3-0.1-1.9,0.1c-13.1,4.3-26.3,8.7-39.4,13.1C79.3,133.6,73.9,135.4,68.3,137.3z
			 M116.3,110.1c0-0.7,0.1-1.5,0-2.2c0-0.3-0.4-0.7-0.7-0.8c-7.5-1.4-14.9-2.9-22.4-4c-3.8-0.6-7.8-1.1-11.6-0.7
			c-6.8,0.6-13.2,3.2-19.2,6.5c-0.6,0.3-1.1,0.8-1.8,1.3c1.5,0.6,2.7,1.1,3.9,1.7c3.8,2,7.5,4,11.3,6.1c3.1,1.7,6.3,1.9,9.7,0.8
			c3.2-1.1,6.4-2.2,9.7-3.1C102.1,113.8,109.1,112,116.3,110.1z M134.3,107.3c0,0.6,0.1,1.2,0,1.7c-0.2,1,0.3,1.3,1.2,1.5
			c10.2,2.4,20.4,4.9,30.3,8.4c2.7,0.9,5.5,0.7,8-0.6c5.3-2.7,10.5-5.5,15.8-8.3c-0.5-0.3-1-0.8-1.6-1.1c-3.1-1.4-6.2-3-9.4-4.2
			c-5.4-2-11-3.2-16.9-2.2c-5.5,0.9-10.9,1.8-16.4,2.7C141.7,105.9,138,106.6,134.3,107.3z"/>
        </symbol>

		<symbol id="head--4" viewBox="0 0 250 250">
			<title>Black Panther Head</title>
			<path d="M45.6,61.4c0-4.2,0-8.3,0-12.5c0.1-0.3,0.2-0.6,0.2-0.9c0.5-7.9,1-15.9,1.6-23.8c0.4-5.2,1-10.4,1.5-15.6
			c0.4,0,0.8,0,1.2,0c1.8,0.5,3.6,1,5.4,1.6c6.8,2.5,13.1,6.2,19.4,9.8c0.5,0.3,1,0.5,1.6,0.8c-0.2,0.2-0.5,0.3-0.8,0.5
			c-0.3,0.2-0.6,0.3-0.8,0.5c-0.2,0.2-0.5,0.5-0.5,0.8c-0.7,6.4-0.5,12.7,0.8,19c2.6,12.1,9.3,21.7,18.8,29.3
			c6.8,5.5,14.4,9.5,22.5,12.8c0.6,0.2,1,0.4,1.1,1.2c0.4,5.2,0.8,10.4,1.2,15.7c0.2,2.5,0.4,5,0.6,7.4c1.1,0,2,0,3,0
			c-0.6-8.5-1.3-16.9-2-25.3c0-0.4-0.6-1-1-1.2c-8.6-4.3-16.7-9.3-23.8-15.8C85,56.3,78,44.7,76.9,30.1c-0.2-3.2,0-6.3,0-9.5
			c0.9-0.2,1.5-0.3,2.1-0.4c13.7-2.2,27.3-4.5,41-6.7c1.7-0.3,3.5-0.8,5.2-0.7c3.6,0.3,7.1,1.1,10.6,1.7c10,1.6,20.1,3.3,30.1,4.9
			c2.2,0.4,4.5,0.7,6.7,1.1c0.8,8.6-0.2,16.8-3.5,24.7c-3.9,9.3-10.3,16.8-18,23.1c-6.5,5.4-13.7,9.7-21.2,13.5
			c-0.4,0.2-0.9,0.7-0.9,1.1c-0.6,7.2-1.1,14.4-1.7,21.6c-0.1,1.2-0.2,2.4-0.2,3.6c1.1,0,2,0,3,0c0.6-7.7,1.3-15.3,1.9-23
			c0.1-0.7,0.3-1.1,1-1.3c7.4-3,14.5-6.7,20.9-11.6c7.1-5.3,12.9-11.7,16.7-19.7c4.2-8.7,5.4-18,4.8-27.5c-0.1-1.7-0.1-3.3-2-4
			c0,0,0-0.1,0-0.2c0.5-0.3,1.1-0.6,1.6-0.9c6-3.5,12-6.9,18.4-9.4c1.8-0.7,3.7-1.2,5.6-1.8c0.6,0,1.1,0,1.7,0c0,0.2-0.1,0.3,0,0.5
			c0.6,6.2,1.2,12.5,1.8,18.7c1,10.7,1.6,21.4,1.3,32.2c-0.1,2-0.4,4.1-0.8,6.1c-0.3,1.5-1.3,2.8-1.3,4.3
			c-0.3,5.9-0.3,11.7-0.5,17.6c-0.2,11-0.5,22-0.5,33c0,2.7-0.5,4.9-2.4,6.8c-0.4,0.4-0.7,1.1-0.7,1.7c-0.4,8.9-1.3,17.7-3.1,26.4
			c-4.5,21.8-14,41.2-28.3,58.3c-11.7,13.9-25.6,25.3-40.8,35.2c-0.6,0.4-1.1,0.3-1.6-0.1c-12.7-8.2-24.6-17.6-35-28.6
			c-9.3-9.8-17-20.7-23-32.8c-8.6-17.4-13-35.9-13.8-55.2c-0.1-2.7-0.7-4.9-2.5-6.9c-0.4-0.5-0.7-1.3-0.7-2
			c-0.1-3.8-0.2-7.5-0.2-11.3c-0.3-13.8-0.5-27.6-0.8-41.5c0-0.7-0.1-1.3-0.4-2c-0.9-2.3-2.1-4.6-1.8-7.2
			C45.8,61.6,45.7,61.5,45.6,61.4z M65.5,104.8c-0.3,2.3,0.5,4.6,1.8,6.9c1.3,2.2,2.5,4.5,3.7,6.8c1,1.9,2.5,2.9,4.6,3.2
			c7,0.7,14,1.5,21,2.2c1.4,0.1,2.8,0.6,4.2,0.3c2.5-0.4,4.9-1.3,7-2.9c1.3-1,2.3-2.1,2.7-3.7c0.6-2-0.1-3.5-2-4.3
			c-10.5-4.7-21-9.3-31.5-14c-1.5-0.7-3-1.1-4.6-0.9c-1.3,0.2-2.6,0.3-3.9,0.5c-1.6,0.2-2.8,1.4-2.9,3
			C65.5,102.8,65.5,103.6,65.5,104.8z M184.3,104.3c0-0.7,0-1.4,0-2.2c-0.1-1.8-1.2-3.1-3-3.3c-0.4,0-0.9-0.1-1.3-0.2
			c-3.1-0.6-5.9-0.1-8.8,1.3c-4.7,2.3-9.6,4.3-14.4,6.4c-5.1,2.2-10.1,4.5-15.2,6.8c-2.3,1-3,2.8-2,5.1c0.3,0.7,0.7,1.3,1.2,1.9
			c1.4,1.6,3.3,2.6,5.4,3.2c1.1,0.4,2.3,0.9,3.4,0.8c8.2-0.8,16.4-1.7,24.5-2.6c2.1-0.2,3.6-1.3,4.6-3.2c1.2-2.3,2.3-4.5,3.6-6.7
			C183.8,109.4,184.6,107,184.3,104.3z M92.4,221.3c0-0.5,0.1-0.8,0.1-1c0-16.6,0-33.3,0-49.9c0-1.5-0.6-2.6-1.6-3.7
			c-4-4.3-8.2-8.5-11.9-13.1c-11.2-13.8-19.5-29.3-26.6-45.5c-0.2-0.5-0.4-1-0.6-1.4c-0.2,2.8-0.2,5.5-0.2,8.2
			c0,0.5,0.2,0.9,0.4,1.4c3.9,8.5,8.1,16.9,13,24.9c5.4,8.8,11.3,17.2,18.8,24.5c2,2,2.9,4.1,2.9,6.9c-0.1,13.9,0,27.8,0,41.7
			c0,0.4,0,1,0.3,1.3C88.6,217.4,90.4,219.2,92.4,221.3z M198.2,106.5c-2.6,5.4-5,10.6-7.6,15.8c-8.3,16.4-18.4,31.6-31.8,44.4
			c-1.1,1.1-1.6,2.4-1.6,4c0,16.5,0,33,0,49.4c0,0.3,0,0.7,0.1,1.2c1.8-1.8,3.4-3.5,5.1-5c0.7-0.6,0.9-1.3,0.9-2.2
			c0-14,0-28.1,0-42.1c0-2.3,0.8-4.2,2.4-5.9c3.6-4,7.3-7.9,10.6-12.2c9-11.7,15.7-24.7,21.7-38c0.1-0.3,0.2-0.6,0.2-0.9
			C198.2,112.1,198.2,109.4,198.2,106.5z M153.3,126.2c-1.1,0-2,0.1-3,0c-0.8-0.1-1.2,0.2-1.6,1c-3,6-6,12-9,18.1
			c-0.4,0.7-0.8,0.9-1.5,0.9c-8.9,0-17.7,0-26.6,0c-0.7,0-1.1-0.2-1.4-0.9c-2.6-5.3-5.3-10.6-7.9-15.8c-1.7-3.4-1.7-3.4-5.5-3.2
			c0,0-0.1,0-0.2,0c0.1,0.2,0.2,0.4,0.3,0.6c4.6,9.5,9.2,19,13.8,28.5c0.6,1.2,0.9,2.4,0.9,3.8c-0.1,3,0,6,0,9c1.1,0,2,0,3,0
			c0-3.6,0.2-7.2-0.1-10.7c-0.2-2.4-1.2-4.8-1.8-7.2c8.2,0,16.3,0,24.8,0c-2.9,5.8-2.1,11.9-2.1,17.9c1.1,0,2,0,3,0
			c0-3.4,0-6.7,0-10c0-0.5,0.1-1,0.3-1.5c3.2-6.7,6.5-13.4,9.7-20.1C149.9,133.2,151.5,129.8,153.3,126.2z M72.3,22.4
			c-1.7,0.3-3.2,0.9-3.8,2.9c-0.9,2.7-2.2,5.3-3,8c-2.8,9.2-2.9,18.3,1.2,27.2c3.4,7.4,8.7,13.1,15,18c8.4,6.6,17.9,11.3,27.7,15.3
			c0.9,0.4,1.2,0.8,1.3,1.7c0.2,3.5,0.4,6.9,0.8,10.4c0.2,1.8-0.2,3-1.9,3.7c-0.4,0.1-0.6,0.4-1,0.7c1.1,0.7,2,1.3,3.1,2.1
			c1.2-1.2,2.4-2.4,3.5-3.7c0.2-0.2,0.3-0.7,0.3-1.1c-0.3-4.5-0.6-9-0.8-13.5c0-0.7-0.3-1-1-1.3c-4-1.8-8-3.5-11.9-5.5
			c-8.2-4.2-15.8-9.2-22.2-15.8C68.4,60,64.7,46.7,69.1,31.3C70,28.3,71.2,25.3,72.3,22.4z M141.3,110.3c-0.8-0.5-1.4-1-2-1.3
			c-0.8-0.4-1-1-0.9-1.9c0.3-3.9,0.6-7.7,0.8-11.6c0-0.9,0.3-1.2,1.1-1.5c6.1-2.5,12.1-5.3,17.8-8.6c7.5-4.4,14.3-9.5,19.8-16.3
			c5-6.3,8-13.4,8.3-21.5c0.3-8.1-1.9-15.5-5.2-22.8c-0.8-1.8-2.2-2-3.8-2.5c0.3,0.6,0.4,0.9,0.6,1.3c2.5,5.8,4.3,11.8,4.6,18.1
			c0.5,10-2.8,18.7-9,26.3c-5.5,6.8-12.3,12-19.8,16.2c-5.7,3.2-11.6,5.8-17.4,8.6c-0.5,0.2-1,0.3-1,1.1c-0.3,4.6-0.6,9.2-0.9,13.7
			c0,0.3,0,0.6,0.2,0.8c1.3,1.3,2.6,2.6,3.8,3.9C139.3,111.6,140.2,111,141.3,110.3z M126.7,50.6c0.7-11.7,1.3-23.3,2-34.8
			c-2.3-1-4.5-1.2-6.7-0.4c-0.8,0.3-0.9,0.6-0.9,1.3c0.5,9.1,1,18.1,1.5,27.2c0.1,2.2,0.3,4.4,0.4,6.7
			C124.3,50.6,125.4,50.6,126.7,50.6z"/>
		</symbol>

		<symbol id="head--5" viewBox="0 0 250 250">
			<title>Robocop Head</title>
			<path d="M208.8,67.9c0,17.4,0,34.7,0,52.1c-0.1,0.1-0.2,0.1-0.2,0.2c-0.7,2.1-2.1,3.5-4.1,4.3c-0.3,0.1-0.6,0.7-0.7,1.2
			c-0.4,5.4-0.7,10.8-1,16.1c-0.7,11.1-1.4,22.2-2.1,33.4c-0.5,8.5-3.7,15.9-9.7,22.1c-3.8,3.9-8.3,6.7-12.8,9.6
			c-12.6,8.2-26.2,14.6-40.1,20.1c-6.9,2.7-14.1,3.1-21.2,1.1c-4.7-1.4-9.3-3.4-13.8-5.4c-13.6-6-26.7-12.9-38.6-21.9
			c-8.1-6.1-12.8-14.4-13.5-24.5c-1.2-16.9-2.1-33.8-3.2-50.7c0-0.4-0.4-0.9-0.8-1.1c-1.9-0.8-3.2-2-3.9-3.9c0-0.1-0.2-0.2-0.3-0.3
			c0-17.8,0-35.5,0-53.3c0.1-0.3,0.2-0.5,0.2-0.8c0.5-6.2,1.4-12.4,3.1-18.4c3.4-11.9,9.4-22,19-29.9c8.6-7,18.5-11.2,29.2-13.7
			c7.5-1.8,15.1-2.7,22.8-3.1c0.2,0,0.4-0.2,0.6-0.2c5.3,0,10.6,0,15.8,0c0.2,0.1,0.3,0.2,0.5,0.2c3.7,0.3,7.4,0.6,11.1,1
			c8.8,1,17.4,3.1,25.6,6.5c14,5.9,24.6,15.4,31.1,29.3c3.8,8.3,5.8,17.1,6.6,26.2C208.4,65.3,208.6,66.6,208.8,67.9z M54.7,125.7
			c0.1,0.3,0.2,0.6,0.2,0.8c6.6,17.7,13.2,35.5,19.9,53.2c2.8,7.5,10.5,12.1,18.2,11.1c8.1-1.1,16.1-2.4,24.2-3.7
			c4-0.6,7.9-1.3,11.9-0.8c9.1,1.3,18.2,2.7,27.4,4.2c9.2,1.5,17.1-2.8,20.3-11.2c6.5-17.5,13.1-35,19.6-52.5
			c0.1-0.3,0.2-0.6,0.3-1.1c-3.6,0.3-7,0.6-10.4,0.9c-8.1,0.7-16.2,1.4-24.2,2.1c-8.1,0.7-16.2,1.2-24.2,2.1
			c-8.1,0.9-16.1,0.8-24.2,0c-8-0.8-16.1-1.4-24.1-2.1c-8.2-0.7-16.3-1.4-24.5-2.1C61.6,126.3,58.2,126,54.7,125.7z M125.8,84.3
			c-7.7-0.2-15.2-0.4-22.8-0.5c-5.1-0.1-10.1-0.2-15.2-0.3C78.4,83.3,69,83,59.6,82.8c-2.1,0-3.6,1-4.4,3c-1.7,4.2-1.6,8.4,0,12.6
			c0.8,2.2,2.4,3.4,4.8,3.5c7.4,0.2,14.8,0.5,22.3,0.8c9.8,0.3,19.6,0.6,29.3,1c10,0.5,20,0.3,30.1-0.1c10.3-0.4,20.7-0.8,31-1.1
			c6.4-0.2,12.9-0.4,19.3-0.7c2.1-0.1,3.5-1.1,4.3-3c1.8-4.3,1.9-8.7,0.1-13.1c-0.8-2-2.3-3-4.5-3c-2.8,0-5.6,0.1-8.4,0.2
			c-8.2,0.2-16.5,0.3-24.7,0.5C147.8,83.8,136.7,84.1,125.8,84.3z M45.8,58.8c0.4,0,0.6,0,0.8,0c11.2,0.1,22.3,0.1,33.5,0.2
			c11.2,0.1,22.5,0.1,33.7,0.2c8.6,0,17.3,0,25.9-0.1c17.8-0.1,35.7-0.2,53.5-0.2c3.9,0,7.8,0,11.6,0c0.3,0,0.6,0,0.8-0.1
			c0-1,0-2,0-2.9c-53.3,0-106.6,0-159.9,0C45.8,56.8,45.8,57.7,45.8,58.8z M50.7,42.8c50.1,0,100,0,150.1,0c-0.4-0.6-0.7-1-0.9-1.4
			c-0.6-1.3-1.6-1.7-3-1.7c-47.6,0-95.1,0-142.7,0c-0.3,0-0.6-0.1-0.8,0c-0.3,0.1-0.8,0.2-1,0.5C51.8,41,51.3,41.8,50.7,42.8z"/>
		</symbol>

		<symbol id="body--1" viewBox="0 0 250 250">
			<title>Flak Jacket Body</title>
			<path d="M173.8,4.6c2.1,0.3,4.1,0.7,6.2,0.9c8.8,1.2,17.6,2.3,26.4,3.5c1.4,0.2,2.8,0.4,4.3,0.6c2.8,0.4,4.7,2.4,4.7,5.3
			c0,5.4,0,10.9,0,16.3c0,0.5,0.2,0.9,0.4,1.3c-0.2,0.4-0.5,0.8-0.5,1.3c-0.4,4.2-0.7,8.4-1.1,12.7c-0.5,5.5-0.9,11-1.4,16.5
			c-0.3,3.2-2.7,5.3-5.9,5.3c-12.2,0-24.4,0-36.6,0c-2.4,0-3.7-1.2-3.9-3.6c0-0.3,0-0.6,0-0.8c0-8.3-0.1-16.5-0.1-24.8
			c0-7.2,0-14.5,0-21.7c0-3.5,0-6.9,0-10.7c1.4-0.6,3-1.3,4.6-2C171.7,4.6,172.7,4.6,173.8,4.6z"/>
			<path d="M79.7,4.6c1.7,0.7,3.3,1.4,4.8,2c0,2.5,0,4.7,0,6.8c0,7.4,0,14.7,0,22.1c0,9.6-0.1,19.3-0.2,28.9c0,2.4-1.5,3.9-3.9,3.9
			c-12.2,0-24.3,0-36.5,0c-3.5,0-5.9-2.2-6.2-5.7c-0.8-9.6-1.6-19.3-2.4-28.9c0-0.4-0.3-0.8-0.4-1.1c0.1-0.4,0.4-0.9,0.4-1.3
			c0-5.4,0-10.8,0-16.2c0-3.1,1.7-5,4.8-5.4C52,8,64,6.4,76,4.8c0.1,0,0.2-0.1,0.4-0.2C77.4,4.6,78.6,4.6,79.7,4.6z"/>
			<path d="M34.3,32.7c0.3,4.6,0.7,9.2,1.1,13.7c0.4,5.4,0.9,10.7,1.4,16.1c0.3,3.9,3.1,6.6,7,6.6c12.2,0,24.5,0,36.7,0
			c3,0,4.8-1.9,4.8-4.9c0.1-17.1,0.2-34.1,0.2-51.2c0-1.9,0-3.8,0-5.9c3.7-0.6,7.2-1.3,10.8,0.1c4.1,1.6,8.3,3.2,12.4,4.6
			c11.6,4,23.2,3.8,34.7-0.6c3.2-1.2,6.4-2.4,9.6-3.6c2.9-1.2,5.9-1.5,9-1c0.9,0.2,1.8,0.3,2.8,0.4c0,0.3,0.1,0.5,0.1,0.8
			c0,6.3,0.1,12.6,0.1,19c0.1,12.3,0.1,24.6,0.2,36.9c0,3.6,1.8,5.4,5.4,5.4c12,0,23.9,0,35.9,0c4.1,0,6.9-2.5,7.3-6.5
			c0.9-9.8,1.6-19.6,2.5-29.4c0-0.2,0-0.4,0-0.8c1.3,0.5,2.6,0.8,3.7,1.4c1.2,0.6,1.3,1.9,1.2,3.1c-0.2,3.7-0.4,7.3-0.6,11
			c-0.5,7.5-1.3,14.9-2.9,22.2c-1.4,6.5-3.3,12.9-7.1,18.6c-0.2,0.3-0.3,0.8-0.2,1.2c1.4,11.1,2.8,22.1,4.2,33.2
			c0.6,4.3,1.1,8.6,1.7,12.9c3.8,0.6,5,2.1,5,5.9c0,30.8,0,61.7,0,92.5c0,3.8-2.7,6.8-6.8,6.8c-13.1-0.1-26.2-0.1-39.2,0
			c-2.5,0-4.5-0.9-6.1-2.7c-0.2-0.3-0.6-0.5,0-0.9c0.2-0.1,0.1-0.8,0.1-1.3c0-31.3,0-62.6,0-94c0-3.5,2.4-6.2,6.2-6.2
			c13,0.1,26,0,39,0c0.4,0,0.9,0,1.3,0c0-0.4,0-0.7,0-1c-0.5,0-0.9,0-1.2,0c-13.1,0-26.2,0-39.4,0c-3.4,0-5.5,1.5-6.6,4.6
			c-0.1,0.3-0.5,0.5-0.8,0.6c-0.2,0.1-0.4,0-0.6,0c-27.9,0-55.8,0-83.6,0c-0.4,0-0.8,0-1.1,0c-1.5-4.1-3.3-5.3-7.6-5.3
			c-12.8,0-25.7,0-38.5,0c-0.4,0-0.9,0-1.3,0c0,0.4,0,0.6,0,1c0.5,0,0.9,0,1.3,0c13,0,25.9,0.1,38.9-0.1c3.7,0,6.3,2.4,6.3,6.3
			c-0.1,31.3,0,62.6,0,93.8c0,0.6,0.1,1.2,0.2,2c-1.4,1.8-3.4,2.9-6.1,2.9c-13.4,0-26.7,0-40.1,0c-3.5,0-6.1-2.6-6.1-6
			c0-31.4,0-62.8,0-94.2c0-2.6,1.5-4.4,4.1-4.7c0.3,0,0.5-0.1,0.9-0.2c0.6-4.7,1.2-9.3,1.8-13.9c1.1-8.5,2.2-17,3.3-25.6
			c0.3-2.2,0.6-4.4,0.8-6.7c0-0.4,0-0.9-0.2-1.2c-3.6-5.6-5.6-11.8-7-18.2c-2-9-2.7-18.2-3.2-27.5c-0.1-2.2-0.3-4.4-0.3-6.6
			c-0.1-1.6,0.6-2.5,2-3c0.9-0.3,1.8-0.6,2.7-0.9C34.2,32.7,34.2,32.7,34.3,32.7z M125.1,79.3c-5.8,0-11.7,0-17.5,0
			c-13.1,0-26.1-0.1-39.2-0.1c-2,0-3.2,1.1-3.2,3.1c0,8.1-0.1,16.2,0,24.2c0.1,9.3,7.7,16.7,16.9,16.7c28.7,0,57.4,0,86.1,0
			c9.3,0,16.9-7.7,16.9-17c0-7.9,0-15.8,0-23.6c0-2.3-1.1-3.4-3.4-3.4c-6.5,0-13,0.1-19.4,0.1C150,79.3,137.6,79.3,125.1,79.3z"/>
			<path d="M168.2,220.9c0,5.5,0,10.9,0,16.3c-28.6,0-57.2,0-85.8,0c0-5.5,0-10.9,0-16.3C110.9,220.9,139.5,220.9,168.2,220.9z"/>
			<path d="M82.3,170.4c0-3.2,0-6.3,0-9.6c28.6,0,57.2,0,85.8,0c0,3.1,0,6.3,0,9.6C139.6,170.4,111,170.4,82.3,170.4z"/>
			<path d="M168.2,190.9c0,3.2,0,6.4,0,9.6c-28.6,0-57.2,0-85.9,0c0-3.2,0-6.4,0-9.6C110.9,190.9,139.5,190.9,168.2,190.9z"/>
			<path d="M34.1,32.6c0.1-0.1,0.2-0.1,0.2-0.2c0,0.1,0,0.2,0,0.3C34.2,32.7,34.2,32.7,34.1,32.6z"/>
			<path d="M125.2,80.4c12.4,0,24.8,0,37.2,0c6.5,0,13-0.1,19.5-0.1c1.5,0,2.3,0.6,2.3,2.1c0,8.5,0.2,17-0.2,25.4
			c-0.4,8.1-7.7,14.4-15.8,14.4c-20.9,0-41.8,0-62.7,0c-7.7,0-15.4,0-23,0c-9,0-16.2-7.1-16.2-16.2c0-7.7,0-15.4,0-23.2
			c0-1.9,0.6-2.5,2.6-2.5C87.6,80.3,106.4,80.3,125.2,80.4C125.2,80.3,125.2,80.3,125.2,80.4z"/>
		</symbol>

		<symbol id="body--3" viewBox="0 0 250 250">
			<title>Jugger Body</title>
			<path d="M95,3.6c0.4,0,0.8,0,1.2,0c0.5,0.4,1.1,0.8,1.6,1.3c1.4,1.3,2.8,2.6,4.1,4c0.6,0.7,1.3,0.9,2.2,0.9
			c13.3,0,26.6-0.1,39.8,0c2.1,0,3.8-0.3,5.1-2c0.1-0.1,0.3-0.2,0.4-0.3c0,0.1-0.1,0.2-0.1,0.4c0.4,0.3,0.7,0.6,1.1,0.8
			c6.2,2.1,12.5,4,18.8,6.1c10.8,3.7,21.5,7.6,31.7,12.7c4.4,2.2,8.8,4.6,12.5,8c0.4,0.4,0.8,1,0.9,1.6c0.4,2.2,0.8,4.5,1.1,6.7
			c1.1,8.4,1,16.8-0.3,25.2c-0.3,2-0.3,4.2-1.2,5.8c-2.5,4.5-5.9,8.3-10.4,11c-0.6,0.3-1.3,0.5-2,0.6c-3.8,0.5-7.6,0.8-11.4,1.5
			c-9.2,1.8-17.9,5.1-26.3,9.1c-6.8,3.2-13.5,6.7-20.2,10.1c-0.6,0.3-1.4,0.4-2,0.3c-3.3-0.5-6.6-1.1-9.9-1.6
			c-2.6-0.4-5.4-0.9-8-0.7c-5,0.4-10.1,1.3-15.1,2.2c-1.3,0.2-2.4,0.1-3.6-0.5c-7.8-3.9-15.5-7.9-23.4-11.5
			c-10.6-4.8-21.5-8.2-33.2-8.9c-1-0.1-2.1-0.4-3-0.9c-4.3-2.6-7.4-6.4-10-10.6c-0.2-0.3-0.3-0.6-0.3-0.9
			c-2.4-12.2-2.5-24.4-0.1-36.7c0.2-0.9,0.6-1.6,1.3-2.2c3.7-3.2,7.8-5.5,12.1-7.6C61.1,21.1,74.5,16.5,88,12
			c3.9-1.3,7.9-2.5,11.8-3.8c0.1-1.2-0.6-0.9-1.2-0.7c-6.5,2.1-13.1,4.2-19.5,6.4C68,17.7,57,21.8,46.5,27.2
			c-4,2.1-7.9,4.3-11.3,7.4c-0.5,0.5-1,1.3-1.2,2c-2.3,11.2-2.5,22.4-0.7,33.7c0.3,1.7,0.3,3.5,1.1,4.9c2.8,4.8,6.4,9,11.4,11.7
			c0.5,0.3,1.2,0.4,1.8,0.5c6.5,0.3,12.7,1.5,18.9,3.4c9.6,2.8,18.6,7,27.4,11.4c3.6,1.8,7.2,3.7,11,5.6c-0.5,0.1-0.7,0.2-1,0.3
			c-6.7,1.4-13.4,3.1-19.8,5.5c-7.8,2.9-15.1,6.5-21.2,12.2c-1.1,1-2.2,1.2-3.6,0.9c-6.8-1.8-13.7-3.6-20.5-5.2
			c-4-1-8.1-1.7-12.1-2.5c0-2.9,0-5.8,0-8.7c0.1-9.1,0.2-18.2,0.2-27.2c0.1-9.4,0.2-18.8,0.2-28.2c0.1-12.4,0.2-24.7,0.3-37.1
			c0-0.7,0.2-1,0.9-1.3C38.7,12.7,49.2,9.9,60,7.9C70.5,6,81,4.7,91.7,4C92.8,4,93.9,3.7,95,3.6z"/>
		<path d="M154.8,3.6c1.4,0.2,2.8,0.4,4.2,0.5c20.1,1.4,39.8,4.6,58.9,11.1c1.2,0.4,2.4,0.9,3.6,1.2c0.7,0.2,0.9,0.6,0.9,1.3
			c0,5.3,0.1,10.6,0.1,15.8c0.1,11,0.2,22.1,0.2,33.1c0.1,9.2,0.2,18.5,0.2,27.7c0.1,7.7,0.2,15.4,0.2,23.1c0,0.4,0,0.9,0,1.4
			c-2,0.4-4,0.6-5.9,1.1c-9.1,2.2-18.2,4.4-27.3,6.7c-1.4,0.4-2.5,0.1-3.6-0.9c-6.3-5.8-13.8-9.5-21.8-12.4
			c-6.3-2.3-12.8-3.9-19.4-5.3c-0.2,0-0.4-0.1-0.9-0.2c2.6-1.3,4.9-2.5,7.2-3.7c9.2-4.7,18.5-9.2,28.3-12.5c7.2-2.3,14.5-4,22-4.3
			c0.6,0,1.3-0.2,1.9-0.6c4.9-2.7,8.5-6.8,11.2-11.6c0.9-1.6,0.9-3.7,1.2-5.6c1.7-11,1.4-21.9-0.7-32.8c-0.2-1-0.6-1.7-1.3-2.3
			c-4.1-3.6-8.7-6.2-13.6-8.5c-14.9-7.2-30.5-12.3-46.2-17.3c-1.5-0.5-3-1-4.7-1.5c0.9-0.9,1.7-1.6,2.5-2.4c0.3-0.4,0.6-0.8,0.9-1.2
			C153.7,3.6,154.2,3.6,154.8,3.6z"/>
		<path d="M42.7,199.2c9.7,0,19.4,0,29,0c4.1,0,8.2,0,12.4,0c1,0,1.6,0.3,2.1,1.1c6.3,10,12.6,19.9,18.8,29.9
			c0.1,0.2,0.3,0.5,0.5,0.8c0.3-0.2,0.6-0.3,0.9-0.4c-0.1-0.3-0.2-0.5-0.4-0.7c-6.5-10.3-13-20.6-19.5-30.9
			c-0.4-0.6-0.8-0.8-1.4-0.8c-2.3,0-4.6,0.1-7,0c-0.4,0-1.1-0.4-1.3-0.7c-3.9-6.4-7.7-12.8-11.7-19.1c-0.4-0.6-1.1-1.2-1.7-1.5
			c-7-3.1-14.1-6.1-21.2-9.1c-0.7-0.3-1-0.6-1.1-1.4c-1.7-10.8-3.6-21.6-5-32.4c-0.8-5.8-4.2-9.4-8.5-12.5c-0.4-0.3-0.8-0.7-1.1-1
			c0.1-0.1,0.1-0.3,0.2-0.4c2,0.4,4.1,0.6,6,1.1c8.7,2.1,17.4,4.2,26.1,6.5c2,0.5,3.6,0.1,5.1-1.3c5.4-5,11.9-8.4,18.8-11.1
			c9.6-3.7,19.6-6,29.7-7.6c3.8-0.6,7.7-1.2,11.5-1.6c1.6-0.2,3.3,0.2,5,0.4c10.2,1.4,20.3,3.2,30.2,6.2c8,2.5,15.6,5.6,22.4,10.5
			c1.4,1,2.7,2.1,4,3.3c1.4,1.3,2.9,1.7,4.8,1.2c9.1-2.3,18.3-4.5,27.4-6.7c1.7-0.4,3.5-0.6,5.3-0.9c0.1,0.1,0.2,0.2,0.2,0.3
			c-0.3,0.3-0.5,0.8-0.8,1c-2.9,2-5.4,4.4-7.2,7.4c-1.3,2.2-1.3,4.6-1.7,6.9c-1.2,7.2-2.4,14.5-3.5,21.8c-0.5,3-0.9,6.1-1.3,9.1
			c-0.1,0.8-0.4,1.2-1.2,1.6c-7,3-13.9,5.9-20.9,9c-0.6,0.3-1.1,0.8-1.5,1.4c-4,6.6-8.1,13.2-12.1,19.9c-2.6,0-5.3,0-7.9,0
			c-0.4,0-1,0.3-1.2,0.6c-6.6,10.4-13.2,20.8-19.7,31.2c-0.1,0.1-0.1,0.2-0.1,0.3c0.6,0.9,0.9,0.4,1.3-0.2
			c5.9-9.3,11.9-18.6,17.6-28c1.4-2.3,2.9-3.1,5.5-3c12.4,0.2,24.9,0.1,37.3,0.1c0.4,0,0.9,0,1.4,0c2.2,5.2,1.5,10.4,0.3,15.6
			c-1.3,5.9-3.8,11.3-6.2,16.8c-0.1,0.3-0.8,0.6-1.2,0.6c-4,0.1-8.1,0.1-12.1,0.1c-14.7,0.1-29.4,0.2-44.1,0.2
			c-8.4,0.1-16.9,0.2-25.3,0.2c-12.9,0-25.8-0.2-38.7-0.3c-10.1-0.1-20.2-0.2-30.3-0.3c-0.4,0-1.1-0.2-1.2-0.6
			c-2.3-5.3-4.7-10.6-6.1-16.3c-1.1-4.3-1.5-8.7-0.8-13.1C41.7,201.3,42.3,200.3,42.7,199.2z"/>
		<path d="M76,198.2c-11.1,0-22.2,0-33.4,0c0.5-9.9,0.2-19.7-1.2-29.7c2.7,1.2,5.3,2.2,7.8,3.3c4.6,2,9.2,4,13.8,6
			c0.4,0.2,0.9,0.5,1.1,1c3.9,6.3,7.7,12.6,11.5,18.9C75.8,197.8,75.9,198,76,198.2z"/>
		<path d="M208.5,168.8c-1.2,9.8-1.7,19.5-1.1,29.3c-11,0-21.9,0-32.9,0c0.2-0.3,0.3-0.6,0.5-1c3.7-6,7.3-12.1,11-18.1
			c0.3-0.6,1-1.1,1.6-1.3c6.6-2.9,13.3-5.8,20-8.6C207.8,169,208,169,208.5,168.8z"/>
		</symbol>

		<symbol id="body--4" viewBox="0 0 250 250">
			<path d="M137.8,244.6c-8.6,0-17.1,0-25.7,0c-0.2-0.1-0.5-0.2-0.7-0.2c-6.7-0.2-13.5-0.3-20.2-0.7
			c-13-0.8-26-1.9-38.9-2.8c-1.8-0.1-3.6-0.3-5.4-0.5c0-0.1-0.1-0.3-0.1-0.4c-1.1-6.2-2.3-12.5-3.4-18.7c-0.1-0.3,0.2-0.8,0.5-1.1
			c2.9-2.7,5.8-5.3,8.8-7.9c0.7-0.6,0.9-1.3,0.7-2.1c-1.8-8.5-3.4-17.1-5.3-25.6c-4.2-18.9-9.1-37.7-15.9-55.9
			c-1.8-4.9-4-9.7-5.9-14.6c0-0.1,0-0.2,0-0.2c0.3-1.8,0.7-3.7,1-5.5c2-11.6,3-23.3,3.2-35.1c0.2-13.3-0.7-26.5-2.6-39.6
			c-0.5-3.2-1.1-6.3-1.6-9.5c0-0.1,0-0.2,0-0.2c0.2,0,0.3,0,0.5-0.1c7.2-2.7,14.3-5.4,21.5-8c3.5-1.3,3.5-1.3,3-5.1
			c0-0.1,0.1-0.1,0.1-0.2c2.4-0.4,4.9-0.9,7.4-1.3c6-1.1,12-2.1,18-3.2c0.3-0.1,0.7,0,1,0.2c0.5,0.3,0.8,0.8,1.3,1
			c8.6,4.1,17.1,8.1,25.7,12.2c12.2,5.8,24.8,6.5,37.4,1.6c6.2-2.4,12.2-5.6,18.2-8.4c3.8-1.8,7.5-3.5,11.2-5.4
			c1-0.5,1.8-0.8,2.9-0.6c4.8,0.8,9.5,1.5,14.3,2.3c3.5,0.6,7.1,1.1,10.5,1.7c0,1.1,0.1,2.2,0,3.2c-0.1,0.8,0.3,1.1,1,1.4
			c5.4,2,10.8,4,16.2,6c2.6,1,5.2,1.9,7.8,2.9c-0.1,0.5-0.1,0.8-0.2,1.2c-0.9,6.5-2,12.9-2.7,19.5c-1.3,11.7-1.6,23.3-1.1,35.1
			c0.5,11.2,1.8,22.3,3.8,33.3c0.1,0.7,0,1.4-0.2,2.1c-2.7,7.1-5.6,14.1-8.1,21.3c-5.2,14.9-9.2,30.2-12.6,45.6
			c-2.1,9.2-3.8,18.4-5.7,27.7c-0.2,0.9,0,1.5,0.6,2.1c2.5,2.6,4.9,5.3,7.5,8c0.7,0.7,0.8,1.4,0.7,2.3c-0.6,3.5-1.1,7-1.6,10.5
			c-0.4,2.7-0.8,5.4-1.2,8c-0.6,0-1.1,0-1.6,0c-6.5,0.6-13,1.3-19.5,1.7c-13.4,0.8-26.8,1.4-40.2,2.1
			C140.6,244.4,139.2,244.5,137.8,244.6z M68,30.7c-1-2.5-1.9-4.8-2.9-7.2c-2.6,0.4-5.1,0.8-7.7,1.2c1,2.7,2,5.2,3,7.7
			C63,31.8,65.5,31.3,68,30.7z M188.1,9.6c-0.7,1.9-1.3,3.8-1.9,5.7c3.2,0.6,6.3,1.2,9.4,1.9c0.8-2.1,1.6-4,2.3-6
			C194.6,10.6,191.5,10.1,188.1,9.6z M181.6,28.3c3,0.6,5.9,1.2,8.8,1.8c0.9-2.1,1.7-4,2.5-6c-3.1-0.6-6.1-1.3-9.1-1.9
			C183,24.3,182.3,26.3,181.6,28.3z M71.5,39.2c-2.6,0.6-5,1.2-7.6,1.9c1,2.4,2,4.7,3,7.1c2.5-0.6,5-1.3,7.5-1.9
			C73.5,43.8,72.5,41.5,71.5,39.2z M89.5,93.8c2.4-0.9,4.6-1.8,6.8-2.6c-1.3-2.4-2.5-4.7-3.7-7c-2.4,0.8-4.7,1.6-7,2.4
			C87,89.1,88.2,91.4,89.5,93.8z M70.9,56.9c1.1,2.4,2.2,4.6,3.2,6.8c2.5-0.7,4.9-1.4,7.4-2.1c-1.1-2.3-2.1-4.5-3.1-6.7
			C75.9,55.5,73.5,56.2,70.9,56.9z M181.2,29.3c-0.8,2-1.5,3.9-2.3,6c2.8,0.6,5.6,1.2,8.5,1.8c0.9-2,1.7-4,2.6-6
			C187,30.5,184.2,29.9,181.2,29.3z M77.9,53.9c-1-2.1-1.9-4.2-2.8-6.3c-0.1-0.2-0.5-0.4-0.7-0.3c-2.3,0.6-4.6,1.2-7,1.8
			c1.1,2.3,2.1,4.6,3.1,6.8C73,55.2,75.4,54.6,77.9,53.9z M85.1,85.7c2.4-0.8,4.7-1.6,7-2.4c-1-2-2-4-3-5.9
			c-0.1-0.2-0.6-0.5-0.9-0.5c-2.2,0.6-4.4,1.3-6.7,2C82.8,81.2,84,83.4,85.1,85.7z M97.8,108.1c2.2-0.9,4.3-1.8,6.6-2.7
			c-1.3-2.3-2.5-4.5-3.8-6.8c-2.3,0.9-4.5,1.8-6.7,2.6C95.1,103.6,96.4,105.9,97.8,108.1z M176.1,42.3c2.8,0.6,5.4,1.2,8.2,1.8
			c0.9-2,1.8-4,2.7-6c-3-0.6-5.7-1.2-8.4-1.8C177.7,38.3,176.9,40.3,176.1,42.3z M68.4,31.7c-2.5,0.6-5,1.1-7.6,1.7
			c0.9,2.3,1.8,4.4,2.7,6.7c2.5-0.6,5-1.2,7.6-1.8C70.2,36,69.3,33.8,68.4,31.7z M79.6,37.2c1,2.4,1.9,4.7,2.9,6.9
			c2.4-0.6,4.7-1.2,7.1-1.8c-0.9-2.4-1.8-4.6-2.7-6.9C84.4,36,82.1,36.6,79.6,37.2z M62.2,15.9c-2.6,0.4-5.1,0.7-7.7,1.1
			c0.9,2.3,1.7,4.5,2.5,6.7c2.6-0.4,5.1-0.8,7.7-1.2C63.9,20.2,63.1,18.1,62.2,15.9z M183.8,45.1c-2.7-0.6-5.4-1.2-8.1-1.8
			c-0.9,2.1-1.7,4.1-2.6,6.2c2.7,0.6,5.2,1.2,7.8,1.8C181.9,49.2,182.8,47.3,183.8,45.1z M71,14.7c0.8,2.2,1.6,4.4,2.4,6.5
			c2.7-0.4,5.2-0.8,7.8-1.2c-0.8-2.2-1.5-4.3-2.2-6.4C76.3,13.9,73.7,14.3,71,14.7z M76.3,28.9c2.6-0.6,5-1.1,7.5-1.7
			C83,25,82.3,23,81.5,20.9c-2.6,0.4-5.2,0.8-7.8,1.2C74.6,24.5,75.4,26.6,76.3,28.9z M98.3,109c1.4,2.3,2.7,4.5,4.1,6.8
			c2.1-1,4.1-2,6.2-3.1c-1.3-2.2-2.5-4.3-3.7-6.4C102.6,107.3,100.6,108.1,98.3,109z M81.9,62.5c-2.5,0.7-4.9,1.4-7.4,2.1
			c1.1,2.2,2.1,4.2,3.1,6.3c2.5-0.8,4.8-1.6,7.2-2.3C83.9,66.5,82.9,64.6,81.9,62.5z M82.9,45.1c1,2.3,1.9,4.4,2.9,6.6
			c2.4-0.6,4.6-1.3,6.9-1.9c-0.9-2.2-1.8-4.4-2.7-6.6C87.5,43.9,85.3,44.5,82.9,45.1z M170.1,56.5c2.6,0.6,5.1,1.1,7.6,1.7
			c1-2.1,1.9-4,2.8-6c-2.7-0.6-5.2-1.2-7.8-1.8C171.8,52.5,171,54.4,170.1,56.5z M84.1,28.2c-2.5,0.6-5,1.1-7.5,1.7
			c0.9,2.2,1.7,4.3,2.5,6.4c2.4-0.6,4.8-1.2,7.3-1.8C85.7,32.3,84.9,30.3,84.1,28.2z M89.1,59.4c2.3-0.7,4.5-1.3,6.7-1.9
			c-1-2.3-1.9-4.4-2.8-6.6c-2.3,0.6-4.5,1.2-6.9,1.9C87.1,54.9,88.1,57.1,89.1,59.4z M85.3,69.5c-2.4,0.8-4.8,1.6-7.2,2.3
			c1,1.9,1.8,3.7,2.8,5.4c0.1,0.2,0.7,0.4,0.9,0.3c2.2-0.6,4.3-1.3,6.6-2C87.3,73.6,86.3,71.6,85.3,69.5z M184.2,21.2
			c3.1,0.6,6.1,1.3,9.1,1.9c0.7-1.7,1.3-3.2,2-4.9c-3.2-0.6-6.3-1.3-9.4-1.9C185.3,18,184.8,19.5,184.2,21.2z M106,79.6
			c-2.1,0.7-4.1,1.4-6.2,2.1c1.2,2.3,2.3,4.5,3.5,6.8c2-0.8,4-1.5,6-2.3C108.2,84,107.1,81.8,106,79.6z M107.3,96
			c1.3,2.3,2.5,4.5,3.7,6.7c1.9-0.8,3.8-1.6,5.8-2.4c-1.2-2.3-2.4-4.5-3.6-6.7C111.2,94.5,109.3,95.2,107.3,96z M92.7,67.2
			c1.1,2.2,2,4.3,3,6.3c2.2-0.7,4.3-1.3,6.4-1.9c-1-2.2-2-4.3-3-6.5C97,65.8,94.9,66.4,92.7,67.2z M70.6,13.7
			c2.8-0.4,5.4-0.8,8.1-1.2c-0.6-2-1.2-3.8-1.8-5.7c-2.7,0.5-5.3,0.9-8.1,1.4C69.4,10.1,70,11.9,70.6,13.7z M100,97.8
			c-1.1-1.9-2.1-3.8-3.1-5.7c-2.3,0.9-4.5,1.7-6.8,2.6c1.1,2,2.2,3.8,3.2,5.7C95.5,99.5,97.7,98.7,100,97.8z M169.5,19.2
			c-0.7,2.1-1.4,4.1-2,6.1c2.3,0.5,4.6,1,6.9,1.4c0.8-2,1.5-4,2.3-6.1C174.3,20.2,171.9,19.7,169.5,19.2z M109.7,148.6
			c1.4-2.1,2.8-4.1,4.3-6.2c-1.5-1.4-3-2.8-4.5-4.3c-1.4,2.1-2.8,4.2-4.2,6.3C106.8,145.8,108.2,147.2,109.7,148.6z M105.6,78.6
			c-1-2.1-2-4.1-2.9-6.1c-2.2,0.7-4.3,1.3-6.4,1.9c1,2,1.9,3.8,2.9,5.6c0.1,0.3,0.7,0.5,1,0.4C101.8,80,103.6,79.3,105.6,78.6z
			 M165,82.9c1.1-2,2.1-3.9,3.1-5.8c-2.2-0.7-4.4-1.3-6.6-2c-0.9,1.9-1.9,3.8-2.8,5.7C160.8,81.5,162.8,82.2,165,82.9z M89.5,60.3
			c0.9,2,1.8,3.9,2.7,5.9c2.2-0.7,4.3-1.4,6.5-2.1c-0.9-1.9-1.7-3.8-2.5-5.7C94,59.1,91.8,59.7,89.5,60.3z M174,27.8
			c-2.4-0.5-4.7-1-6.9-1.4c-0.7,2-1.4,3.9-2.1,5.9c2,0.4,3.9,0.9,5.8,1.3c0.5,0.1,0.9,0.1,1.1-0.6C172.6,31.3,173.3,29.6,174,27.8z
			 M179.2,13.9c0.6-1.8,1.3-3.5,1.9-5.4c-2.8-0.4-5.4-0.8-8-1.2c-0.5,1.8-1,3.4-1.5,5.1C174.2,12.9,176.6,13.4,179.2,13.9z
			 M171.3,34.7c-2.3-0.5-4.4-1-6.6-1.4c-0.8,2.1-1.5,4-2.3,6.1c2.2,0.5,4.3,0.9,6.4,1.4C169.6,38.7,170.4,36.7,171.3,34.7z
			 M162,40.3c-0.8,2-1.6,4-2.4,6.1c2.1,0.5,4.2,0.9,6.2,1.4c0.9-2.1,1.7-4,2.6-6.1C166.2,41.2,164.1,40.8,162,40.3z M92.3,172.3
			c1.5-1.9,2.9-3.8,4.4-5.7c-1.3-1.5-2.5-3-3.9-4.6c-1.5,2-2.9,4-4.3,5.9C89.8,169.5,91,170.9,92.3,172.3z M167.4,62.5
			c2.3,0.6,4.5,1.1,6.7,1.6c0.2,0.1,0.7-0.1,0.8-0.3c0.8-1.5,1.5-3,2.3-4.6c-2.6-0.6-5-1.1-7.5-1.7
			C168.9,59.1,168.2,60.7,167.4,62.5z M146.2,115.3c1.3-2.1,2.6-4.2,3.8-6.3c-1.8-0.8-3.5-1.7-5.2-2.5c-1.2,2.1-2.3,4-3.5,6.1
			C142.9,113.5,144.5,114.4,146.2,115.3z M165.3,48.8c-1.9-0.4-3.7-0.9-5.5-1.2c-0.3-0.1-0.8,0.1-0.9,0.3c-0.8,1.8-1.5,3.6-2.3,5.6
			c2.1,0.5,4,0.9,6.1,1.4C163.6,52.8,164.4,50.8,165.3,48.8z M112.7,92.8c-1-1.9-1.9-3.7-2.9-5.6c-2,0.8-4,1.5-6,2.3
			c1.1,2,2,3.8,3,5.6C108.8,94.3,110.7,93.6,112.7,92.8z M120.3,106.9c-1.1-1.9-2.1-3.7-3.1-5.6c-1.9,0.8-3.8,1.6-5.7,2.4
			c1.2,2,2.3,4,3.4,5.9C116.8,108.7,118.5,107.8,120.3,106.9z M109.1,149.5c-1.6-1.5-3-2.8-4.5-4.2c-1.3,1.8-2.4,3.5-3.6,5.2
			c1.4,1.5,2.7,3,4.1,4.6C106.5,153.2,107.8,151.4,109.1,149.5z M54.2,16c2.6-0.4,5.1-0.7,7.7-1.1c-0.7-1.8-1.3-3.4-1.9-5.1
			c-2.5,0.4-5,0.9-7.5,1.3C53,12.8,53.6,14.4,54.2,16z M118.7,129.2c-1.1-1.8-2.1-3.4-3.2-5c-2.1,1-4,1.9-6.1,2.9
			c1.2,1.8,2.3,3.4,3.4,5.1C114.8,131.1,116.7,130.2,118.7,129.2z M123,135.9c-1.9,1.1-3.7,2.1-5.6,3.1c1.2,1.7,2.4,3.4,3.5,5.1
			c1.9-1,3.7-2,5.6-3C125.3,139.3,124.2,137.6,123,135.9z M167,63.4c-0.7,1.6-1.5,3.1-2.2,4.8c2.2,0.6,4.3,1.3,6.4,1.8
			c0.2,0.1,0.6-0.1,0.7-0.3c0.8-1.5,1.5-3,2.3-4.6C171.7,64.6,169.4,64,167,63.4z M161.9,74.1c2.3,0.7,4.5,1.3,6.7,2
			c0.9-1.7,1.7-3.3,2.6-5c-2.4-0.7-4.6-1.3-6.9-2C163.5,70.9,162.7,72.4,161.9,74.1z M129.6,106.1c1.8,1,3.5,1.9,5.3,2.9
			c1.1-1.9,2.2-3.8,3.3-5.7c-1.9-0.9-3.6-1.7-5.5-2.6C131.6,102.6,130.6,104.3,129.6,106.1z M161.1,90.1c-2.1-0.7-4-1.4-6.1-2.1
			c-1,1.8-1.9,3.6-2.8,5.4c2,0.8,3.9,1.5,5.8,2.2C159,93.7,160,91.9,161.1,90.1z M155.5,87c1.9,0.7,3.7,1.3,5.6,1.9
			c0.2,0.1,0.7-0.1,0.8-0.4c0.9-1.5,1.7-3.1,2.6-4.7c-2.2-0.7-4.2-1.4-6.3-2.1C157.2,83.5,156.4,85.2,155.5,87z M119.2,130.1
			c-2,1-3.9,2-5.9,3c1.2,1.7,2.3,3.4,3.4,5.1c1.9-1.1,3.8-2.1,5.6-3.1C121.3,133.3,120.3,131.7,119.2,130.1z M121.5,144.9
			c1.3,1.8,2.4,3.4,3.6,5c1.9-1,3.7-1.9,5.5-2.9c-1.2-1.7-2.3-3.4-3.5-5.1C125.2,143,123.4,143.9,121.5,144.9z M145.3,105.6
			c1.8,0.8,3.5,1.7,5.3,2.5c1.1-1.9,2.2-3.7,3.4-5.6c-1.9-0.9-3.7-1.6-5.5-2.4C147.4,101.9,146.4,103.7,145.3,105.6z M178.9,14.9
			c-2.6-0.5-5-1-7.5-1.5c-0.5,1.7-1,3.2-1.5,4.8c2.5,0.5,4.8,1,7.2,1.5C177.7,18.1,178.2,16.6,178.9,14.9z M47.5,238.3
			c1.8-1.7,3.4-3.3,5-4.9c0.2-0.2,0.3-0.7,0.2-1c-0.5-1.6-1.1-3.1-1.7-4.8c-1.5,1.5-3,2.9-4.4,4.3c-0.1,0.1-0.2,0.4-0.2,0.6
			C46.7,234.4,47.1,236.3,47.5,238.3z M138.6,102.5c1-1.9,2-3.6,3-5.5c-1.9-0.8-3.7-1.7-5.5-2.5c-1,1.8-2,3.5-3,5.3
			C135,100.7,136.8,101.6,138.6,102.5z M131.2,147.9c-1.9,1-3.7,1.9-5.5,2.9c1.2,1.7,2.4,3.3,3.6,4.9c1.8-1,3.6-1.9,5.4-2.9
			C133.5,151.2,132.4,149.6,131.2,147.9z M141.4,122.8c-1.5-1.1-3-2.1-4.5-3.1c-1.2,2-2.4,3.9-3.6,5.8c1.5,1.1,2.8,2.1,4.2,3.2
			C138.9,126.7,140.1,124.8,141.4,122.8z M112.9,163.7c1.6-2.1,3.1-4.2,4.7-6.3c-1.2-1.1-2.4-2.2-3.5-3.3c-1.5,2.1-2.9,4-4.4,6
			C110.7,161.3,111.8,162.5,112.9,163.7z M132.5,137.9c1.7-0.9,3.4-1.8,5-2.7c-1.2-1.9-2.3-3.7-3.5-5.5c-1.7,1-3.3,1.9-5,2.8
			C130.2,134.4,131.3,136.1,132.5,137.9z M147,169.6c-1.3-1.7-2.5-3.3-3.8-5c-1.7,1-3.3,2-5,3c1.4,1.7,2.7,3.4,4,5.1
			C143.8,171.7,145.4,170.7,147,169.6z M122.6,150.5c-1.2-1.2-2.4-2.3-3.6-3.4c-1.5,2.1-2.9,4.1-4.3,6.1c1.2,1.1,2.3,2.2,3.5,3.3
			C119.7,154.5,121.1,152.6,122.6,150.5z M102.9,116.7c1,1.6,1.9,3,2.8,4.5c2.1-1,4.1-2,6.1-3.1c-0.9-1.6-1.8-3-2.7-4.5
			C107,114.7,105,115.7,102.9,116.7z M142.6,163.8c-1.2-1.6-2.4-3.2-3.5-4.8c-1.8,0.9-3.5,1.8-5.3,2.8c1.3,1.8,2.6,3.4,3.8,5
			C139.3,165.8,140.9,164.8,142.6,163.8z M148.4,71.2c-0.9,1.8-1.7,3.5-2.6,5.4c1.9,0.6,3.8,1.3,5.7,1.9c0.9-1.9,1.8-3.6,2.7-5.5
			C152.2,72.3,150.3,71.8,148.4,71.2z M100.4,151.4c-1.2,1.7-2.3,3.3-3.5,4.9c1.4,1.5,2.8,2.9,4.2,4.4c1.2-1.6,2.3-3.2,3.4-4.7
			C103.1,154.4,101.8,152.9,100.4,151.4z M140.7,113.5c-1.1,1.8-2.1,3.5-3.2,5.3c1.5,1.1,3,2.1,4.5,3.1c1.2-1.9,2.4-3.8,3.6-5.7
			C143.9,115.3,142.4,114.4,140.7,113.5z M157.4,96.4c-2-0.8-3.9-1.5-5.8-2.2c-0.9,1.7-1.8,3.3-2.7,4.9c1.9,0.9,3.7,1.6,5.5,2.5
			C155.4,99.9,156.4,98.2,157.4,96.4z M147,178.7c1.4,1.7,2.7,3.3,4.1,5c1.5-1,3-2,4.5-3.1c-1.3-1.7-2.6-3.2-3.9-4.8
			C150.2,176.8,148.7,177.7,147,178.7z M63.8,221.6c1.6-1.7,3.1-3.3,4.6-4.9c0.2-0.2,0.2-0.6,0.1-0.8c-0.7-1.3-1.5-2.6-2.3-4
			c-1.5,1.5-2.9,3-4.2,4.5c-0.2,0.2-0.3,0.7-0.1,0.9C62.4,218.7,63.1,220.1,63.8,221.6z M139.5,88.5c1.9,0.7,3.7,1.4,5.6,2.1
			c0.9-1.8,1.8-3.4,2.7-5.2c-2-0.7-3.8-1.3-5.7-2C141.2,85.2,140.4,86.8,139.5,88.5z M151,79.4c-2-0.7-3.8-1.3-5.7-1.9
			c-0.9,1.7-1.7,3.3-2.6,5.1c1.9,0.7,3.8,1.3,5.7,2C149.2,82.7,150.1,81.1,151,79.4z M141.4,141.3c-1.2-1.8-2.3-3.4-3.4-5.1
			c-1.7,0.9-3.3,1.8-5,2.7c1.2,1.7,2.3,3.4,3.5,5.1C138.2,143,139.8,142.2,141.4,141.3z M87.9,168.8c-1.3,1.7-2.4,3.3-3.6,4.9
			c1.2,1.4,2.5,2.8,3.7,4.2c1.3-1.6,2.5-3.2,3.7-4.7C90.4,171.7,89.2,170.3,87.9,168.8z M124.9,126.1c1.8-0.9,3.5-1.8,5.2-2.6
			c-1-1.7-2-3.3-3-4.9c-1.8,0.9-3.5,1.7-5.3,2.5C122.8,122.8,123.8,124.4,124.9,126.1z M160,60.7c0.8-1.7,1.5-3.3,2.3-5
			c-2.1-0.5-4.1-0.9-6.1-1.4c-0.7,1.7-1.4,3.2-2.2,4.9C156,59.7,157.9,60.2,160,60.7z M100.9,171.6c-1.5,1.9-2.9,3.7-4.4,5.5
			c1.1,1.2,2.1,2.3,3.2,3.6c1.5-1.9,2.9-3.6,4.3-5.4C102.9,174,101.9,172.8,100.9,171.6z M137.1,144.8c1.2,1.7,2.3,3.3,3.4,4.9
			c1.7-0.9,3.2-1.7,4.8-2.6c-1.2-1.7-2.2-3.3-3.3-4.9C140.4,143.1,138.8,143.9,137.1,144.8z M58.6,227.1c1.4-1.5,2.8-2.9,4.1-4.3
			c0.2-0.2,0.2-0.6,0.1-0.8c-0.6-1.4-1.3-2.8-1.9-4c-1.5,1.4-3,2.8-4.5,4.3C57.1,223.8,57.8,225.4,58.6,227.1z M157,67.1
			c-1.8-0.5-3.4-1-5.1-1.4c-0.3-0.1-0.9,0.1-1,0.3c-0.7,1.4-1.4,2.8-2.1,4.3c2,0.6,3.9,1.2,5.8,1.7C155.4,70.3,156.2,68.7,157,67.1z
			 M114.9,123.2c-0.9-1.5-1.8-2.8-2.6-4.2c-2.1,1-4,2-6.1,3c0.9,1.4,1.7,2.7,2.6,4C110.9,125.1,112.8,124.2,114.9,123.2z
			 M120.8,107.8c-1.9,0.9-3.6,1.8-5.4,2.7c0.9,1.5,1.8,3,2.7,4.5c1.8-0.9,3.6-1.8,5.4-2.7C122.5,110.7,121.7,109.3,120.8,107.8z
			 M151.2,175c-1.2-1.6-2.4-3-3.6-4.6c-1.6,1.1-3.1,2.1-4.7,3.2c1.2,1.5,2.3,2.9,3.5,4.3C148,176.9,149.5,176,151.2,175z
			 M129.9,156.6c1.1,1.5,2.1,2.9,3.2,4.3c1.8-0.9,3.5-1.8,5.3-2.8c-1.1-1.5-2.1-2.9-3.2-4.4C133.5,154.7,131.7,155.6,129.9,156.6z
			 M153.1,166.8c1.3,1.7,2.5,3.2,3.7,4.8c1.5-0.9,2.8-1.7,4.3-2.6c-1.3-1.7-2.5-3.3-3.7-5C155.9,164.9,154.5,165.8,153.1,166.8z
			 M125.4,127c1.1,1.6,2,3.1,3,4.7c1.7-1,3.3-1.9,5-2.8c-0.9-1.5-1.8-3-2.8-4.5C128.9,125.2,127.2,126.1,125.4,127z M126.6,111.1
			c1.7,1.2,3.3,2.3,5,3.5c0.9-1.6,1.8-3.1,2.7-4.6c-1.8-1-3.5-1.9-5.3-2.9C128.2,108.4,127.5,109.7,126.6,111.1z M126.6,117.7
			c-0.9-1.5-1.8-3-2.6-4.5c-1.8,0.9-3.6,1.8-5.4,2.7c0.9,1.5,1.8,2.9,2.6,4.3C123.1,119.4,124.8,118.6,126.6,117.7z M148.9,161.2
			c1.2,1.6,2.4,3.2,3.6,4.8c1.5-1,2.9-1.9,4.2-2.8c-1.2-1.6-2.3-3.1-3.4-4.6C151.8,159.4,150.4,160.3,148.9,161.2z M146,148
			c-1.6,0.9-3.2,1.7-4.8,2.6c1.1,1.5,2.1,3,3.2,4.5c1.6-0.9,3.2-1.7,4.8-2.5C148.1,151,147,149.5,146,148z M136.7,93.6
			c1.9,0.8,3.7,1.7,5.5,2.5c0.8-1.6,1.6-3,2.4-4.5c-1.9-0.7-3.7-1.4-5.6-2.1C138.2,90.8,137.5,92.1,136.7,93.6z M100.5,161.6
			c-1.4-1.5-2.8-2.9-4.1-4.4c-1,1.4-1.9,2.7-2.9,4c1.3,1.6,2.6,3,3.9,4.6C98.4,164.3,99.4,163,100.5,161.6z M151.6,64.4
			c1.8,0.5,3.5,1,5.2,1.5c0.3,0.1,0.8-0.2,0.9-0.4c0.6-1.2,1.2-2.5,1.8-3.9c-2-0.5-4-1-6-1.4C152.9,61.6,152.3,63,151.6,64.4z
			 M187.8,217.6c-0.9,1.1-2,2.3-3.1,3.5c1.6,1.4,3.1,2.8,4.7,4.2c0.8-1.1,1.8-2.4,2.8-3.8C190.7,220.3,189.3,219,187.8,217.6z
			 M79.9,187.9c1.2-1.5,2.3-2.9,3.5-4.3c-1.1-1.5-2.2-2.9-3.4-4.3c-1.1,1.5-2.2,2.9-3.3,4.3C77.8,185,78.8,186.4,79.9,187.9z
			 M53.6,231.8c1.3-1.2,2.5-2.3,3.7-3.4c0.2-0.2,0.3-0.7,0.2-1c-0.6-1.5-1.3-2.9-2-4.6c-1.2,1.2-2.3,2.4-3.4,3.6
			c-0.2,0.2-0.3,0.6-0.2,0.8C52.5,228.8,53.1,230.4,53.6,231.8z M165.1,174.3c-1.2-1.5-2.3-2.9-3.4-4.4c-1.4,0.9-2.8,1.7-4.3,2.6
			c1.2,1.6,2.4,3.1,3.7,4.6C162.5,176.1,163.8,175.2,165.1,174.3z M92.1,182.5c1.1,1.2,2.1,2.4,3.2,3.6c1.3-1.6,2.5-3,3.7-4.6
			c-1-1.2-2.1-2.3-3.1-3.6C94.5,179.5,93.3,180.9,92.1,182.5z M171,199c-1.2-1.4-2.3-2.6-3.4-4c-1.4,1-2.8,2-4.2,3
			c1.3,1.4,2.4,2.7,3.7,4.1C168.4,201.1,169.7,200.1,171,199z M149.8,153.5c-1.6,0.8-3.1,1.6-4.8,2.5c1.1,1.5,2.2,2.9,3.2,4.4
			c1.5-0.9,3-1.8,4.5-2.7C151.7,156.2,150.8,154.9,149.8,153.5z M197.2,226.8c-1,1.5-1.9,2.8-2.5,3.7c1.5,1.6,2.8,3,4.2,4.5
			c0.6-1.4,1.3-2.9,1.9-4.3C199.5,229.4,198.4,228.2,197.2,226.8z M151.8,184.6c1.2,1.4,2.3,2.7,3.4,4c1.5-1.1,2.9-2.1,4.3-3.2
			c-1.1-1.3-2.1-2.6-3.2-3.9C154.8,182.6,153.4,183.5,151.8,184.6z M86.3,196.6c1.3-1.5,2.5-2.9,3.8-4.4c-1-1.3-1.9-2.5-3-3.8
			c-1.3,1.5-2.5,2.9-3.7,4.3C84.4,194,85.4,195.3,86.3,196.6z M104.6,174.4c1.3-1.6,2.4-3.1,3.6-4.6c-1.1-1.2-2.2-2.3-3.3-3.5
			c-1.2,1.5-2.3,3-3.4,4.4C102.5,171.9,103.5,173.1,104.6,174.4z M83.6,174.5c-1,1.4-2,2.6-2.9,3.9c1.2,1.5,2.3,2.9,3.4,4.3
			c1.1-1.4,2.2-2.7,3.2-4C86.1,177.3,84.9,176,83.6,174.5z M94.5,186.9c-1.1-1.2-2.1-2.4-3.1-3.5c-1.2,1.4-2.3,2.8-3.5,4.2
			c1,1.3,1.9,2.5,3,3.8C92.1,189.8,93.3,188.4,94.5,186.9z M109,161c-1.2,1.6-2.3,3-3.4,4.5c1.1,1.2,2.2,2.3,3.3,3.5
			c1.1-1.5,2.2-2.9,3.3-4.4C111.1,163.4,110.1,162.2,109,161z M179.5,208.4c-1.3,1.2-2.5,2.3-3.7,3.4c1.2,1.3,2.4,2.5,3.6,3.8
			c1.3-1.1,2.5-2.2,3.7-3.3C181.9,211,180.7,209.7,179.5,208.4z M72.8,188.7c1,1.4,2,2.7,3,4c1.2-1.4,2.2-2.7,3.3-4
			c-1-1.4-2.1-2.8-3.1-4.2C75,185.9,74,187.2,72.8,188.7z M70.8,206.9c1,1.4,1.8,2.7,2.8,4.2c1.2-1.4,2.4-2.7,3.6-4
			c-0.9-1.4-1.8-2.7-2.8-4.1C73.2,204.3,72,205.6,70.8,206.9z M175,203.5c-1.1-1.3-2.2-2.5-3.3-3.7c-1.3,1.1-2.6,2.1-4,3.2
			c1.2,1.3,2.3,2.6,3.5,3.8C172.5,205.7,173.7,204.6,175,203.5z M78,206.2c1.3-1.4,2.4-2.8,3.6-4.1c-1-1.3-2-2.6-2.9-3.9
			c-1.2,1.4-2.4,2.7-3.5,4C76.1,203.5,77,204.8,78,206.2z M184.2,220.1c0.9-1,2-2.2,3-3.4c-1.2-1.2-2.3-2.4-3.4-3.6
			c-1.3,1.1-2.4,2.2-3.8,3.4C181.5,217.8,182.8,218.9,184.2,220.1z M166.9,194.2c-1.1-1.3-2.1-2.5-3.2-3.8c-1.5,1.1-2.8,2.1-4.2,3.2
			c1.1,1.3,2.1,2.4,3.2,3.7C164.1,196.2,165.5,195.3,166.9,194.2z M190.1,226.2c1.2,1.3,2.4,2.5,3.6,3.8c0.9-1.3,1.8-2.6,2.7-4
			c-1.2-1.2-2.4-2.3-3.6-3.5C191.8,223.8,190.9,225.1,190.1,226.2z M82.3,201.3c1.2-1.4,2.3-2.6,3.3-3.9c-1-1.3-1.9-2.6-2.9-3.9
			c-1.2,1.3-2.3,2.6-3.4,3.9C80.3,198.7,81.3,199.9,82.3,201.3z M63.4,207.1c-0.7-1.3-1.4-2.4-2.2-3.7c-1.2,1.5-2.3,2.8-3.4,4.2
			c-0.2,0.2-0.3,0.7-0.2,0.9c0.4,1.1,1,2.1,1.5,3.2C60.6,210.1,62,208.6,63.4,207.1z M158.8,192.8c1.5-1.1,2.8-2.1,4.2-3.2
			c-1-1.2-1.9-2.3-2.8-3.4c-1.4,1.1-2.9,2.1-4.3,3.2C156.9,190.5,157.8,191.6,158.8,192.8z M68.5,194.2c-1,1.3-2,2.5-3,3.8
			c-0.1,0.2-0.1,0.6,0,0.8c0.7,1.1,1.4,2.2,2.2,3.4c1.2-1.4,2.4-2.7,3.5-4C70.3,196.9,69.4,195.6,68.5,194.2z M71.9,197.4
			c1.1-1.3,2.2-2.6,3.3-3.8c-1-1.3-2-2.6-3-4c-1,1.3-2,2.6-3,3.8C70.1,194.7,71,196,71.9,197.4z M72.9,211.9c-1-1.4-1.9-2.8-2.8-4.2
			c-1.1,1.2-2.1,2.3-3.1,3.4c0.8,1.5,1.7,2.9,2.6,4.4C70.6,214.3,71.7,213.1,72.9,211.9z M172,207.6c1.1,1.2,2.1,2.3,3.1,3.4
			c1.2-1.1,2.4-2.2,3.7-3.4c-1-1.1-2-2.2-3.1-3.4C174.5,205.4,173.2,206.4,172,207.6z M172.2,190.4c1.2-0.9,2.4-1.7,3.6-2.6
			c-1.1-1.4-2.2-2.7-3.3-4c-1.3,0.9-2.5,1.8-3.7,2.8C170.1,187.8,171.1,189.1,172.2,190.4z M164.8,181.6c1.3-1,2.6-1.9,3.8-2.8
			c-1-1.3-1.9-2.5-2.9-3.7c-1.4,0.9-2.7,1.8-4,2.7C162.9,179.2,163.8,180.3,164.8,181.6z M114.6,141.5c0.5-0.7,0.9-1.4,1.3-2
			c0.1-0.2,0.1-0.5,0.1-0.6c-1.1-1.7-2.3-3.5-3.5-5.3c-0.8,1.3-1.6,2.4-2.4,3.6C111.6,138.6,113.1,140,114.6,141.5z M45.3,226.3
			c1.3-1.4,2.5-2.6,3.7-3.8c0.1-0.1,0.1-0.4,0-0.6c-0.4-1.3-0.9-2.5-1.4-3.9c-1.1,1-2.1,1.8-3,2.7c-0.2,0.2-0.3,0.6-0.2,0.8
			C44.7,223,45,224.6,45.3,226.3z M54.2,217c1.3-1.4,2.6-2.7,3.8-4.1c0.2-0.2,0.2-0.6,0.1-0.8c-0.4-1-0.9-2-1.4-3
			c-1.3,1.4-2.6,2.7-3.8,4.1c-0.2,0.2-0.1,0.7,0,0.9C53.3,215,53.7,215.9,54.2,217z M188,207.9c1-0.9,1.9-1.7,2.9-2.6
			c-1.2-1.4-2.4-2.7-3.6-4c-1,0.9-2,1.8-3,2.7C185.6,205.4,186.8,206.6,188,207.9z M179.5,192.1c-1-1.2-2-2.4-3-3.5
			c-1.2,0.9-2.4,1.7-3.6,2.6c1.1,1.2,2.1,2.4,3.2,3.7C177.3,193.9,178.4,193,179.5,192.1z M168.3,185.7c1.3-1,2.5-1.9,3.7-2.8
			c-0.9-1.1-1.8-2.2-2.6-3.3c-1.3,0.9-2.5,1.8-3.8,2.8C166.5,183.6,167.3,184.6,168.3,185.7z M180.2,192.9c-1.2,1-2.2,1.8-3.3,2.7
			c1.1,1.2,2.1,2.3,3.1,3.5c1-0.9,2-1.8,3.1-2.8C182.1,195.2,181.1,194.1,180.2,192.9z M192.5,212.4c1.3,1.3,2.5,2.6,3.8,3.8
			c0.7-0.9,1.4-1.8,2.1-2.8c-1.2-1.3-2.3-2.5-3.5-3.8C193.9,210.7,193.2,211.6,192.5,212.4z M51.8,214.2c-1,0.9-2,1.8-2.9,2.6
			c-0.2,0.2-0.3,0.6-0.3,0.8c0.4,1.3,0.9,2.5,1.4,3.9c1.1-1.1,2-2.1,3-3.1c0.2-0.2,0.3-0.7,0.3-0.9
			C52.8,216.4,52.3,215.3,51.8,214.2z M183.7,197.1c-1.1,0.9-2,1.8-3.1,2.8c1.1,1.2,2.1,2.2,3.1,3.3c1-1,2-1.8,3-2.7
			C185.7,199.4,184.7,198.3,183.7,197.1z M131.1,115.5c-1.7-1.2-3.3-2.3-5.2-3.6c-0.1,0.8-0.5,1.5-0.3,1.9c1,1.9,2.1,3.6,3.2,5.5
			C129.6,118,130.3,116.8,131.1,115.5z M64.1,206.2c1-1.2,1.9-2.2,2.9-3.2c-0.8-1.2-1.6-2.4-2.5-3.7c-0.9,1.1-1.7,2.1-2.5,3.2
			C62.7,203.7,63.4,204.9,64.1,206.2z M199,214.3c-0.7,1-1.4,1.9-1.9,2.5c1.2,1.2,2.2,2.3,3.3,3.4c0.5-0.8,1.1-1.7,1.7-2.6
			C201.1,216.5,200.1,215.5,199,214.3z M202,238.8c0.1-0.1,0.3-0.2,0.4-0.3c0.2-1.2,0.3-2.5,0.6-3.7c0.5-1.6-0.2-2.5-1.5-3.4
			c-0.6,1.4-1.3,2.7-1.8,4.1c-0.1,0.2,0,0.6,0.1,0.7C200.6,237.1,201.3,237.9,202,238.8z M191.6,206.1c-0.9,0.9-1.9,1.7-2.9,2.6
			c1.1,1,2.1,1.9,3.1,2.8c0.8-0.9,1.5-1.8,2.3-2.7C193.2,208,192.4,207.1,191.6,206.1z M203.6,223.9c1.7-2.8,1.7-3.3-0.8-5.3
			c-0.6,0.9-1.2,1.7-1.8,2.6C201.9,222.1,202.7,223,203.6,223.9z M133.9,127.3c0,0.1-0.1,0.1-0.1,0.2c0.7,1.1,1.4,2.3,2.2,3.5
			c0.4-0.5,0.6-1,1-1.5C135.9,128.7,134.9,128,133.9,127.3z M122.7,149.3c0.1-0.1,0.3-0.2,0.4-0.3c-0.9-1.3-1.8-2.6-2.7-4
			c-0.3,0.5-0.5,0.8-0.6,1C120.8,147.2,121.7,148.3,122.7,149.3z"/>
		</symbol>

		<symbol id="body--5" viewBox="0 0 250 250">
			<title>Iron Man Body</title>
			<path d="M157.2,7.7c1.4,0.2,2.8,0.5,4.1,0.7c10.3,1.4,20.4,4.2,30.5,7.4c-0.5,0.2-0.9,0.4-1.3,0.6c-20.6,7.8-41.1,15.6-61.7,23.4
			c-1.1,0.4-1.9,1-2.4,2.1c-0.5,1-1.1,2-1.8,3.1c-0.3-0.4-0.5-0.7-0.6-1c-1-2.8-3.2-4-5.9-5c-19.8-7.4-39.6-15-59.4-22.5
			c-0.4-0.1-0.7-0.3-1.1-0.8c6.1-1.6,12.2-3.5,18.4-4.9c5-1.2,10.2-1.8,15.3-2.7c0.2,0,0.3-0.2,0.5-0.2c0.6,0,1.3,0,1.9,0
			c0.4,0.2,0.9,0.5,1.3,0.7c9.5,4.3,19,8.6,28.5,12.9c0.8,0.3,1.4,0.3,2.1,0c6.8-3.1,13.6-6.1,20.3-9.2c3.1-1.4,6.3-2.9,9.4-4.3
			C156.1,7.7,156.6,7.7,157.2,7.7z"/>
		<path d="M56.2,16.1c0.6,0.3,1,0.6,1.4,0.7c20.9,8,41.8,15.9,62.8,23.9c0.6,0.2,1.2,0.8,1.6,1.4c0.9,1.3,1.6,2.7,2.3,4
			c-7.3,0.9-12.5,4.4-15,11.2c-2.7,7.6-0.6,14.1,5.5,19.5c-1.6,1-3.2,2-4.8,3.1c-7.9,5-15.8,9.9-23.7,14.9c-0.5,0.3-1,0.6-1.6,0.8
			c-3,1.1-6,2.2-9,3.3c-0.4,0.1-1,0-1.3-0.2c-8.8-9-17.5-17.9-26.3-26.9C40.7,64,33.3,56.5,25.9,48.9c-0.3-0.3-0.7-0.6-1.2-1
			c0-6.4,0-12.9,0-19.5c0-0.7,0.4-0.8,0.9-1c6.1-2.3,12.2-4.7,18.3-6.9C48.1,18.9,52.3,17.5,56.2,16.1z"/>
		<path d="M125.3,46.1c0.9-1.6,1.8-3.2,2.7-4.7c0.2-0.3,0.6-0.4,1-0.6c20.8-7.9,41.6-15.8,62.3-23.8c1.6-0.6,2.9-0.6,4.5,0
			c9.2,3.5,18.5,6.9,27.8,10.3c0.9,0.3,1.1,0.8,1.1,1.7c0,5.8,0,11.5,0,17.3c0,1-0.2,1.7-1,2.5c-2.7,2.6-5.3,5.3-7.9,8
			c-5.5,5.6-11,11.3-16.5,16.9c-8.2,8.4-16.5,16.9-24.9,25.6c-4-1.7-8.4-3-12.3-5.3c-9.1-5.4-18-11.2-26.9-16.8
			c6.1-5,8.6-11.4,6.3-18.9C139.1,50.5,133.4,46.7,125.3,46.1z"/>
		<path d="M70.9,145.1c0.2,0.4,0.4,0.8,0.7,1.2c5.3,9.6,11.1,18.8,18.2,27.2c5.4,6.4,11.3,12.3,18.8,16.4c2.7,1.5,5.6,2.4,8.5,3.5
			c0.6,0.3,1,0.6,1.3,1.2c1,2,1.9,4.1,3.2,5.9c1.7,2.4,3.9,2.4,5.6,0.1c1.3-1.7,2.1-3.8,3.1-5.6c0.2-0.4,0.6-0.9,1-1
			c7.2-1.5,13.2-5.2,18.7-9.8c8.3-7.1,14.8-15.8,20.6-24.9c2.7-4.3,5.1-8.7,7.7-13.1c0.1-0.2,0.2-0.3,0.5-0.4c0,0.3,0,0.7-0.1,1
			c-3,15.6-6,31.2-9,46.8c-1,5.4-2.1,10.8-3.1,16.2c-0.1,0.5-0.3,1.1-0.6,1.5c-1.1,1.7-2.2,3.3-3.3,5c-1.3,2.1-3.2,3-5.6,3
			c-14.5,0-29,0-43.6,0c-6.8,0-13.5,0-20.3,0c-2.7,0-4.6-1.1-6.2-3.3c-2.9-3.7-4.1-7.8-5-12.3c-3.5-19-7.2-38-10.8-56.9
			c-0.1-0.5-0.2-1-0.3-1.4C70.7,145.2,70.8,145.2,70.9,145.1z"/>
		<path d="M24.8,56.3c0-2.2,0-4.6,0-7.2C41.4,66.3,58,83.3,74.6,100.3c3.7-1.4,7.4-2.6,11-4.1c1.8-0.7,3.4-1.9,5-3
			c8.1-5.1,16.2-10.2,24.3-15.3c0.6-0.4,1-0.4,1.7-0.1c5.4,3,10.9,3.2,16.5,0.4c0.8-0.4,1.3-0.4,2,0.1c8.7,5.5,17.3,11,26.1,16.4
			c1.5,0.9,3.1,1.7,4.7,2.3c2.9,1.2,5.9,2.2,9,3.3c16.5-17,33.1-34,49.9-51.2c0,2.5,0,4.8,0,7c0,0.3-0.6,0.5-0.9,0.8
			c-4.8,5-9.6,10.1-14.4,15.1c-7.4,7.8-14.8,15.5-22.2,23.3c-6.6,7-13.3,14-19.9,20.9c-1.3,1.3-4,1.3-5.3,0c-2.5-2.8-5-5.6-7.6-8.4
			c-0.3-0.4-1-0.7-1.5-0.7c-7.1-0.1-14.2-0.1-21.2-0.1c-8.4,0-16.9,0-25.3,0c-3.4,0-6.8,0-10.2,0.1c-0.5,0-1.1,0.3-1.5,0.7
			c-2.6,2.8-5.1,5.6-7.6,8.4c-1,1.1-3.9,1.2-4.9,0.1c-7.7-8.1-15.4-16.2-23.1-24.3c-7.3-7.7-14.7-15.4-22-23.1
			c-3.8-4-7.5-7.9-11.3-11.9C25.5,56.9,25.2,56.7,24.8,56.3z"/>
		<path d="M161.6,117.9c0.8,0.2,1.4,0.4,1.9,0.4c2.2-0.4,3.5,0.6,4.7,2.4c2.5,3.8,5.2,7.5,7.9,11.3c-1.7,1.9-3.4,3.8-5.1,5.6
			c-6.6,6.9-13.7,13-22.2,17.6c-7.9,4.2-16.2,6.7-25.2,6.4c-7.6-0.2-14.6-2.4-21.3-5.8c-7.9-4-14.8-9.4-21.1-15.6
			c-2.7-2.6-5.2-5.4-7.9-8.1c3.2-4.5,6.3-8.9,9.4-13.3c0.2-0.2,0.6-0.4,0.9-0.4c0.8-0.1,1.5,0,2.3,0c0.6,0,1.2-0.2,1.7-0.3
			c3.8,2.1,7.7,4.3,11.6,6.2c5.6,2.8,11.6,4.7,17.8,5.8c0.3,0.1,0.7,0.5,0.9,0.8c1.1,2.2,2,4.5,3.3,6.5c1.9,2.9,4.2,2.9,6.2,0
			c1.2-1.8,2-3.9,3-5.8c0.2-0.4,0.7-0.9,1.1-1c10.6-1.1,19.9-5.2,28.5-11.3C160.6,118.7,161.2,118.2,161.6,117.9z"/>
		<path d="M72.8,132.9c4.7,5.3,9.6,10.2,15,14.6c7.5,6,15.6,11,25,13.5c1.7,0.5,3.4,0.8,5.1,1.2c0,0.2-0.1,0.5,0,0.6
			c1.1,2.2,2.2,4.4,3.3,6.6c0.1,0.3,0.4,0.5,0.6,0.7c1.7,1.7,3.5,1.7,4.9-0.2c1.2-1.6,2.3-3.5,3.1-5.4c0.7-1.6,1.4-2.4,3.3-2.7
			c7.8-1.2,14.8-4.5,21.3-8.8c8.2-5.3,15.1-12,21.5-19.3c0.2-0.3,0.5-0.5,0.8-0.9c1.1,1.6,2.6,3,3.1,4.7c0.4,1.2-0.1,2.9-0.7,4.2
			c-4.1,8.1-8.6,15.8-13.8,23.2c-4.3,6.2-9.1,12-14.7,17c-4.9,4.4-10.2,8-16.5,10.1c-3.7,1.3-7.4,0.9-11.1,1.1
			c-2.7,0.1-5.3-0.5-7.8-1.4c-5.9-2.1-11-5.6-15.7-9.7c-8-7.1-14.4-15.6-20-24.7c-3.2-5.1-6.1-10.4-9.1-15.6c-0.6-1.1-0.7-2.4-1-3.7
			c-0.1-0.2,0.1-0.5,0.2-0.8C70.6,135.9,71.7,134.4,72.8,132.9z"/>
		<path d="M24.7,67.8c3.5,3.4,6.8,6.6,10.1,9.7c0.4,0.4,1.1,0.7,1.6,0.7c2.3,0,4.6-0.1,6.8-0.1c0.6,0,1.2,0.3,1.6,0.7
			c10.3,10.7,20.5,21.4,30.7,32.2c2.1,2.3,4.3,4.5,6.5,6.8c-1.6,2.2-3.1,4.5-4.7,6.7c-2.8,4-5.5,7.9-8.3,11.9
			c-0.4,0.6-0.8,0.8-1.6,0.6c-5.6-1.2-11.3-1.8-17-1.3c-3.2,0.3-6.4,0.9-9.8,1.3c-0.3-1.4-0.7-3-1.1-4.6
			c-4.2-17.7-9.1-35.2-14.6-52.5c-0.2-0.7-0.3-1.5-0.3-2.2C24.7,74.5,24.7,71.3,24.7,67.8z"/>
		<path d="M167.4,117.8c5-5.2,9.9-10.4,14.8-15.5c7.4-7.8,14.9-15.6,22.3-23.4c0.4-0.4,1.1-0.7,1.6-0.7c2.2,0,4.5,0,6.7,0.1
			c0.8,0,1.3-0.2,1.9-0.7c3.1-3,6.2-6,9.3-9c0.2-0.2,0.3-0.3,0.7-0.6c0,1.7-0.1,3,0,4.4c0.3,4.2-0.5,8.3-1.8,12.3
			c-5.5,17.2-10.2,34.7-14.2,52.3c0,0.1-0.1,0.1-0.1,0.3c-1.8-0.4-3.6-0.8-5.4-1.1c-7.1-1.1-14.2-0.6-21.2,0.8
			c-0.4,0.1-1.2,0-1.4-0.3C176.2,130.4,171.9,124.1,167.4,117.8z"/>
		<path d="M196.9,207.2c1.7,6.8,2.8,13.5,0.9,20.4c-48.7,0-97.4,0-146.1,0c-2-6.9-0.9-13.6,0.9-20.4c3.4,0.4,6.7,0.9,10,1.3
			c6.4,0.9,12.7,1.7,19.1,2.6c0.5,0.1,1,0.4,1.3,0.8c1.1,1.6,2.2,3.2,3.2,4.8c1.6,2.4,3.8,3.5,6.7,3.5c19.1,0,38.2,0,57.2,0
			c2.3,0,4.6,0,7,0c2.7,0,4.9-1,6.3-3.4c1.1-1.7,2.2-3.3,3.3-5c0.3-0.4,0.8-0.7,1.2-0.8c7-1,14-1.9,21-2.8
			C191.5,208,194.2,207.6,196.9,207.2z"/>
		<path d="M88.3,116.8c2.5-2.7,4.9-5.4,7.3-8.1c0.3-0.3,0.8-0.4,1.3-0.4c3.6,0,7.3,0,10.9-0.1c6.8,0,13.7-0.1,20.5-0.1
			c8.1,0,16.2,0.1,24.4,0.1c0.4,0,0.9,0.1,1.2,0.4c2.5,2.7,4.9,5.4,7.3,8.1c-0.2,0.2-0.3,0.4-0.5,0.5c-8,5.9-16.7,10.1-26.6,11.7
			c-8.9,1.4-17.6,0.4-26.1-2.4c-6.8-2.2-13.1-5.5-19.1-9.3C88.7,117.1,88.5,117,88.3,116.8z"/>
		<path d="M73.6,166.4c-8.9-2.8-17.9-4.5-27.3-3.3c-1.7-8.3-3.4-16.5-5.2-24.9c2.3-0.4,4.6-1,6.9-1.3c6.5-0.8,13-0.3,19.4,1.1
			c0.6,0.1,0.9,0.3,1,1c1.7,9,3.5,18,5.2,27C73.7,166.1,73.6,166.2,73.6,166.4z"/>
		<path d="M208.4,138.3c-1.7,8.2-3.4,16.4-5.1,24.7c-9.4-1.2-18.4,0.5-27.4,3.4c0.4-2.2,0.8-4.3,1.2-6.3c1.3-6.9,2.7-13.8,4-20.7
			c0.2-0.9,0.5-1.3,1.4-1.5c8.4-1.7,16.8-2.1,25.2,0.1c0.2,0,0.4,0.1,0.6,0.2C208.2,138.2,208.2,138.2,208.4,138.3z"/>
		<path d="M167.4,210.1c0.8-4.3,1.6-8.4,2.4-12.4c0.5-2.4,0.9-4.9,1.4-7.3c0.1-0.7,0.4-1.1,1.2-1.4c6.6-2.1,13.2-3.9,20.1-4.1
			c2.3-0.1,4.7,0.1,7.1,0.2c-0.9,7.2-1.9,14.2-2.8,21.2C187,207.5,177.3,208.8,167.4,210.1z"/>
		<path d="M82.1,210.1c-9.9-1.3-19.7-2.6-29.4-3.9c-0.9-7-1.8-13.9-2.8-21.2c2.8,0,5.5-0.3,8.2-0.1c6.6,0.4,13,2.1,19.2,4.2
			c0.4,0.1,0.8,0.6,0.8,0.9C79.5,196.7,80.8,203.3,82.1,210.1z"/>
		<path d="M46.4,163.9c3.1,0,6.1-0.2,9-0.1c6,0.3,11.8,1.6,17.6,3.5c0.7,0.2,1,0.5,1.2,1.3c1.2,6.2,2.4,12.4,3.5,18.6
			c0.1,0.3,0.1,0.6,0.1,1c-9.1-2.8-18.3-5.3-28-3.9C48.7,177.5,47.6,170.9,46.4,163.9z"/>
		<path d="M171.7,187.8c1.2-6.5,2.5-13,3.7-19.5c0.1-0.3,0.4-0.8,0.7-0.9c8.4-2.7,17-4.4,25.9-3.4c0.3,0,0.6,0.1,1,0.2
			c-1.1,6.7-2.2,13.3-3.3,19.7c-2.5,0-4.9-0.1-7.2,0c-6.5,0.2-12.8,1.8-19,3.7c-0.5,0.2-1.1,0.3-1.6,0.5
			C171.8,187.9,171.8,187.9,171.7,187.8z"/>
		<path d="M43,77.2c-2.1,0-4.3,0.1-6.4,0c-0.5,0-1.1-0.4-1.5-0.8c-3.1-2.9-6.1-5.9-9.1-8.8c-0.3-0.3-0.7-0.6-1.2-1
			c0-2.7,0-5.7,0-8.9C31,64.1,37,70.5,43.1,76.9C43.1,77,43.1,77.1,43,77.2z"/>
		<path d="M206.4,76.9c6-6.3,12.1-12.7,18.4-19.3c0,2.5,0,4.7,0,6.8c0,1.3-0.1,2.2-1.2,3.2c-3.2,2.8-6.2,5.9-9.2,8.9
			c-0.5,0.5-1.1,0.8-1.9,0.8c-2-0.1-4,0-5.9,0C206.4,77.1,206.4,77,206.4,76.9z"/>
		<path d="M112.3,63.2c0-7.2,5.9-13,13.1-13c7.3,0.1,13,5.9,12.9,13.4c0,7-6,12.8-13.1,12.7C117.9,76.2,112.2,70.4,112.3,63.2z
			 M124.7,51.3c-7.1,0.6-12,6.2-11.4,13.2c0.5,6.2,6.5,11.2,12.5,10.8c6.5-0.4,11.9-5.9,11.4-12.8C136.7,55.9,130.9,50.7,124.7,51.3
			z"/>
		<path d="M171.9,188c-0.1,0-0.2,0.1-0.2,0.1c0-0.1,0-0.2,0-0.3C171.8,187.9,171.8,187.9,171.9,188z"/>
		</symbol>

		<symbol id="svg-delete" viewBox="0 0 250 250">
			<path d="M117.6,0.2c5,0,9.9,0,14.9,0c0.2,0.1,0.4,0.2,0.6,0.2c6.8,0.4,13.5,1.3,20.1,2.9c28.4,6.7,51.8,21.4,70,44.2
			c16.5,20.7,25.4,44.5,26.9,71c0,0.2,0.2,0.3,0.2,0.5c0,4.2,0,8.5,0,12.7c-0.1,0.4-0.2,0.7-0.3,1.1c-0.5,7.6-1.6,15.2-3.4,22.6
			c-6.2,24.5-18.5,45.3-37.2,62.3c-21.1,19.2-46,29.9-74.4,32.2c-1.2,0.1-2.5,0.3-3.7,0.4c-4.2,0-8.3,0-12.5,0
			c-0.3-0.1-0.6-0.2-0.9-0.2c-6.6-0.4-13.2-1.3-19.7-2.7c-24.5-5.5-45.6-17.2-62.9-35.4c-20.4-21.3-31.9-46.7-34.6-76
			c-0.1-1-0.3-2-0.4-3c0-5.2,0-10.4,0-15.6c0.1-0.3,0.2-0.6,0.3-0.9c0.8-5.8,1.3-11.8,2.5-17.5c5.4-25.1,17.4-46.6,36-64.2
			c21.2-20.1,46.4-31.4,75.5-34C115.6,0.6,116.6,0.4,117.6,0.2z M125.2,102.6c-23.4-23.4-46.7-46.7-69.9-69.9
			C46,38.4,36.5,47.3,32.5,55.5c23.3,23.3,46.6,46.6,70,70c-23.3,23.3-46.6,46.6-69.9,69.9c5.7,9.2,12.9,17.1,22.6,22.5
			c23.3-23.3,46.6-46.6,69.9-69.9c23.3,23.3,46.6,46.7,70,70c9.8-5.5,17-13.4,22.9-22.9c-23.3-23.3-46.6-46.6-70.1-70.1
			c23.3-23.3,46.6-46.6,69.9-69.9c-5.4-9.6-13.6-16.4-22.6-22.5C171.9,55.9,148.6,79.2,125.2,102.6z"/>
		</symbol>

		<symbol id="body--2" viewBox="0 0 250 250">
			<title>Armor Plate Body</title>
			<path d="M161.8,8.5c0.1-0.1,0.3-0.3,0.4-0.4c0.2,0,0.5,0,0.7,0c4.7,2.8,9.8,4.6,15.2,5.7c2.1,0.4,2.1,0.4,2.1,2.5
			c0,0.3,0,0.6,0,0.9c10,2,18.7,7,27.6,11.3c1.7,0.8,3.8,0.9,5.8,1.1c9,0.7,18,0.5,27-0.4c0.4,0,0.9-0.1,1.3-0.1c0.8,0,1,0.3,1,1.3
			c-0.3-0.2-0.5-0.4-0.8-0.7c-2.8,2.4-5.6,4.8-8.4,7.1c-23.1,19.6-46.2,39.1-69.3,58.7c-2,1.7-4.2,2.2-6.7,1.5
			c-6.1-1.5-12.2-3-18.4-4.4c-3.6-0.8-5.2-3.8-4-7.2c9.1-25.2,18.3-50.5,27.4-75.7c0.1-0.3,0.2-0.6,0.3-1
			C162.7,8.8,162.3,8.7,161.8,8.5C161.8,8.5,161.8,8.5,161.8,8.5z M207.4,29c-0.5,0.6-0.9,1-1.3,1.5c-14,17-28,34.1-42,51.1
			c-2.2,2.7-5.1,4-8.5,3.8c-6.5-0.3-8.6-6.3-6.1-10.4c2-3.4,3.8-6.9,5.6-10.4c8.2-15.2,16.4-30.5,24.6-45.7c0.5-1,0.5-1-0.4-1.3
			c-0.2,0.3-0.3,0.5-0.5,0.8c-6.5,12.1-13,24.1-19.5,36.2c-3.6,6.7-7.2,13.4-10.8,20.1c-2.6,4.9-0.2,10.3,5.3,11.4
			c4.5,0.9,8.3-0.4,11.2-4c10.6-12.8,21.1-25.7,31.7-38.5c3.8-4.7,7.7-9.3,11.5-14C207.9,29.4,207.6,29.2,207.4,29z"/>
		<path d="M86.6,8.2c0.1,0.1,0.2,0.2,0.3,0.4c-1,0.2-0.6,0.7-0.4,1.4c9.1,25.2,18.2,50.4,27.4,75.7
			c1.2,3.4-0.3,6.4-3.9,7.2c-6.1,1.5-12.3,2.9-18.4,4.4c-2.6,0.7-4.8,0.1-6.9-1.6c-14.2-12-28.4-24.1-42.6-36.1
			C30.7,49.8,19.3,40.2,7.9,30.4c-0.7-0.6-1.1-0.1-1.6-0.2c0-0.2,0-0.3,0-0.5c0.8-0.1,1.6-0.5,2.3-0.4c9,0.9,18,1,27.1,0.4
			c3.1-0.2,5.9-1,8.7-2.5c4.9-2.6,9.9-4.8,14.9-7c3.1-1.3,6.5-2.2,9.8-3.2c0,0,0-0.3,0-0.5c0-2.1-0.1-2.3,2.3-2.8
			c5.3-1,10.3-2.8,15-5.6C86.5,8.2,86.6,8.2,86.6,8.2z M41.3,29.6c0.2,0.3,0.4,0.5,0.6,0.8c14.2,17.2,28.3,34.4,42.5,51.7
			c2.6,3.2,5.9,4.6,10,4.3c6.2-0.4,9.5-6.3,6.5-11.8C91.4,57.1,82,39.5,72.5,22c-0.8-1.5-1.6-3-2.4-4.4c-1.2,0.2-0.8,0.8-0.5,1.3
			C75.1,29,80.6,39.1,86,49.2c4.7,8.7,9.4,17.3,14,26c2.4,4.4,0.2,9.1-4.8,10c-4.1,0.8-7.4-0.6-10-3.7C73.6,67.4,62,53.2,50.4,39.1
			c-2.8-3.4-5.5-6.7-8.3-10.1C41.8,29.2,41.5,29.4,41.3,29.6z"/>
		<path d="M161.8,8.5c0,0.4,0.1,0.8,0,1.1c-1.9,5.4-3.9,10.9-5.9,16.3c-7.2,19.8-14.3,39.6-21.5,59.3
			c-1.4,3.8,0.4,7.4,4.2,8.4c6.4,1.6,12.9,3.1,19.3,4.7c2.7,0.6,5,0,7.1-1.8c2.4-2.1,4.9-4.1,7.3-6.2c0.2-0.2,0.4-0.3,0.6-0.5
			c8.1,9.6,14.3,20.4,19.1,32c0.3-0.1,0.6-0.1,1-0.2l0,0c-0.6,3.2-1.1,6.4-1.7,9.5c-2,10.3-4.2,20.7-6,31c-0.3,1.9,0.7,4.1,1.2,6.1
			c0.2,0.9,0.9,1.6,1.2,2.5c0.2,0.5,0,1.2,0,1.7c0,0,0,0.1-0.1,0.1c-3.6,3.5-3.4,8.1-3.5,12.6c0,2.1,0.4,4.2,0.6,6.3
			c0.1,1.6,1,2.9,1.9,4.2c0.3,0.5,0.5,1.1,0.5,1.6c-0.3,8.2-0.6,16.4-0.9,24.5c0,1.1,0.2,2.1,0.9,3c1.2,1.7,1,2.2-0.9,2.8
			c-15.3,4.6-30.7,9.3-46,13.9c-4.4,1.3-8.8,2.6-13.2,4c-1.6,0.5-3.1,0.5-4.6,0c-19.7-6-39.5-11.9-59.2-17.8c-1.9-0.6-2.2-1.2-1-2.7
			c0.8-1,1-2.1,0.9-3.3c-0.3-8.1-0.6-16.2-0.9-24.3c0-0.5,0.1-1.1,0.4-1.4c1.9-2.2,2.1-4.8,2.4-7.5c0.4-3.9,0.4-7.8-0.7-11.6
			c-0.4-1.3-1.4-2.6-2.3-3.7c-0.8-1-0.9-1.8-0.2-2.9c1.4-2.1,2.2-4.6,2.2-7.1c0-2-0.6-4.1-1-6.1c-2.3-11.7-4.6-23.5-6.9-35.4
			c0.4,0.1,0.7,0.2,1,0.3c4.9-11.6,11-22.4,19.2-32.1c1.9,1.6,3.7,3.2,5.6,4.7c0.8,0.7,1.6,1.4,2.5,2.1c2.2,1.8,4.6,2.3,7.4,1.6
			c6.1-1.5,12.2-3,18.4-4.5c4.3-1,6.2-4.5,4.7-8.6C107.9,66,101,46.8,94,27.5c-2.1-5.9-4.3-11.8-6.4-17.6c-0.1-0.4-0.2-0.7-0.4-1.3
			c0.4,0.2,0.7,0.3,0.9,0.5c3.9,2.5,7.8,5.1,11.8,7.5c0.6,0.4,1.4,0.6,2.1,0.6c7,0,14.1,0,21.1,0c8.1,0,16.2,0,24.3,0
			c0.7,0,1.4-0.2,2-0.6c3.6-2.3,7.2-4.6,10.8-6.9C160.8,9.4,161.3,8.9,161.8,8.5C161.8,8.5,161.8,8.5,161.8,8.5z M108.3,206.8
			c-9.5,10-6.9,24.6,1,31.7c7.9,7.1,19.9,7.7,28.3,1.2c5.1-4,8-9.3,8.5-15.8c0.5-6.5-1.6-12.1-6-16.9c4-0.5,7.9-0.9,11.8-1.5
			c7.5-1.1,14.8-2.6,21.9-5.3c4-1.5,7.8-3.3,11.2-6c-0.3-0.3-0.5-0.5-0.7-0.7c-0.8,0.6-1.5,1.1-2.3,1.6c-5.3,3.4-11.2,5.4-17.2,6.9
			c-8.2,2.1-16.6,3.2-25,4c-0.5,0-1.1-0.2-1.5-0.5c-8.4-6.9-19.9-6.9-28.3,0c-0.3,0.3-0.9,0.5-1.4,0.4c-4-0.5-8-0.9-12-1.5
			c-11.2-1.8-22.2-4.1-31.8-10.8c-0.2,0.2-0.4,0.4-0.6,0.7c2.6,2.1,5.4,3.6,8.3,4.9c9,3.9,18.6,5.6,28.3,6.9
			C103.3,206.2,105.8,206.5,108.3,206.8z M124.7,134.8c10.6,8.5,20.3,17.7,27.9,29c0.9,1.3,1.9,2.4,3.4,2.9
			c9.3,3.1,18.6,6.2,27.9,9.3c0.9,0.3,0.9-0.1,1-0.7c-0.3-0.1-0.6-0.2-0.8-0.3c-9.1-3-18.1-6.1-27.2-9.1c-1.4-0.5-2.5-1.3-3.3-2.5
			c-7.5-11.3-17.3-20.6-27.8-29.1c-0.6-0.5-1.2-0.6-1.9,0c-10.5,8.5-20.3,17.8-27.9,29.2c-0.8,1.2-1.9,2-3.3,2.5
			c-9.1,3-18.1,6-27.1,9c-0.3,0.1-0.6,0.2-0.9,0.4c0,1.2,0.7,0.8,1.2,0.6c9-3,18-6,27.1-9c1.7-0.6,2.9-1.5,3.9-3
			C104.3,152.6,114.1,143.4,124.7,134.8z M65,163.1c0.4-0.3,0.7-0.5,0.9-0.7c4.7-3.7,9.4-7.6,14.2-11.2c13.4-10,27.8-18.4,43.2-24.9
			c0.9-0.4,1.7-0.4,2.6,0c5.3,2.5,10.8,4.8,16,7.5c15.1,7.9,28.8,17.7,41.8,28.7c0.2,0.2,0.5,0.4,0.8,0.6c0.2-0.3,0.4-0.5,0.6-0.8
			c-0.1-0.1-0.2-0.2-0.3-0.3c-3.1-2.5-6.1-5.1-9.2-7.5c-15.3-11.9-31.6-22-49.5-29.4c-0.9-0.4-1.7-0.4-2.6,0
			c-17.6,7.2-33.7,17.1-48.7,28.7c-3.5,2.7-6.9,5.5-10.4,8.4C64.5,162.6,64.7,162.8,65,163.1z"/>
		<path d="M75.5,89.2c-8.2,9.8-14.4,20.7-19.4,32.6c-16.4-30.1-32.6-60.1-48.9-90c0.1-0.1,0.1-0.1,0.2-0.2
			C30.1,50.7,52.8,69.9,75.5,89.2z"/>
		<path d="M193.2,121.7c-2.4-4.9-4.6-10-7.2-14.8c-3.3-6.2-7.3-11.9-11.8-17.3c-0.1-0.1-0.2-0.3-0.3-0.5
			c22.6-19.2,45.3-38.3,67.9-57.5c0.1,0.1,0.2,0.2,0.3,0.2c-0.5,0.9-1,1.9-1.5,2.8c-15.6,28.7-31.2,57.5-46.8,86.2
			C193.6,121.2,193.4,121.4,193.2,121.7C193.2,121.7,193.2,121.7,193.2,121.7z"/>
		<path d="M242.4,31.5c-0.1,0.1-0.2,0.1-0.3,0.2c0-0.1,0.1-0.2,0.1-0.3C242.3,31.4,242.4,31.4,242.4,31.5z"/>
		<path d="M242.3,31.3c0.1,0,0.2-0.1,0.4-0.1c-0.1,0.1-0.1,0.2-0.2,0.3C242.4,31.4,242.3,31.4,242.3,31.3z"/>
		<path d="M140.2,235.5c-0.4-4.9-2.1-9.1-6.1-12.2c-3.1-2.4-6.8-3.3-10.7-3.3c-8.2,0.1-14,5.1-16.2,14.1
			c-4.8-5.3-6.4-17.2,1.1-25.8c8-9.1,22-9.7,30.5-1.1C147.8,216.2,146.3,229,140.2,235.5z"/>
		<path d="M122.5,243.2c-4.4-0.1-9.5-2.3-13.6-6.8c-0.3-0.3-0.5-1-0.5-1.5c1-8.7,8.2-14.5,17-13.7
			c8.2,0.8,13.8,6.8,13.7,14.8c0,0.5-0.2,1.1-0.6,1.4C134.5,241.2,129.7,243.2,122.5,243.2z"/>
			</g>
		</g>
		<g>
			<g>
				<path d="M109.5,239.4c0.4,0,0.8,0,1.2,0.1c0-1,0-2,0-3c-0.2-0.1-0.4-0.1-0.6-0.2c-0.4-0.3-1.1-0.3-1.5,0c-0.3,0.2-0.6,0.3-0.8,0.5
					c0.6,0.8,1.2,1.6,1.8,2.4c1-0.8,1.4-1.9,1.5-3.2c0.1-1.7-2.4-2-2.9-0.4c-0.1,0.4-0.3,0.9-0.4,1.3c0.2-0.3,0.5-0.6,0.7-0.9
					c-0.3,0.2-0.6,0.4-1,0.5c-0.6,0.2-0.7,0.3-0.1,0.3c0.2,0.3,0.5,0.6,0.7,0.9c0,0.1-0.1,0.1-0.1,0.2c-0.8,0.2-1.7,0.4-2.5,0.7
					c1,0.8,2.2,1.2,3.4,0.7c1-0.4,1.5-1.6,0.7-2.5c-0.1-0.1-0.1-0.1-0.2-0.2c-0.1,0.8-0.2,1.6-0.3,2.4c0.8-0.3,1.3-0.9,1.8-1.6
					c-0.7,0.2-1.4,0.4-2.1,0.5c0.7,0.4,1.4,0.8,2.2,1.1c-0.1-0.8-0.2-1.6-0.3-2.4c-1,0.8-1.2,2.2-0.4,3.2c0.9,1.1,2.6,1.5,3.9,1.9
					c1.8,0.7,2.6-2.2,0.8-2.9c-0.5-0.2-1-0.4-1.5-0.6c-0.2-0.1-0.4-0.2-0.6-0.2c-0.5-0.3-0.5,0-0.2,0.7c0.7-0.6,0.5-1.9-0.3-2.4
					c-0.7-0.4-1.4-0.8-2.2-1.1c-0.7-0.4-1.7-0.2-2.1,0.5c-0.1,0.3-0.3,0.5-0.7,0.6c-0.9,0.4-0.9,1.8-0.3,2.4c0.1,0.1,0.1,0.1,0.2,0.2
					c0.2-0.8,0.4-1.7,0.7-2.5c-0.2,0-0.3,0.1-0.5,0.1c-0.8-0.6-2.3-0.6-2.5,0.7c-0.2,1.5,0.7,3,2.4,2.7c0.8-0.1,1.8-0.7,2.4-1.2
					c0.7-0.6,0.8-1.4,1.1-2.2c-1-0.1-2-0.3-2.9-0.4c0,0.5-0.2,0.8-0.6,1.1c-1.3,1.1,0.4,3.2,1.8,2.4c0.3-0.2,0.6-0.3,0.8-0.5
					c-0.5,0-1,0-1.5,0c0.7,0.4,1.3,0.6,2.1,0.6c1.9,0.1,1.9-2.9,0-3c-0.4,0-0.8,0-1.2-0.1C107.6,236.3,107.6,239.3,109.5,239.4
					L109.5,239.4z"/>
			</g>
		</g>
		<g>
			<g>
				<path d="M114.3,241.7c0.3,0.1,0.6,0.1,0.9,0.2c0.1-1,0.3-2,0.4-2.9c-0.3,0-0.7,0-1,0c-1.4,0-2.2,2.2-0.8,2.8
					c0.9,0.4,1.7,0.7,2.6,0.8c0.1-1,0.3-2,0.4-2.9c-0.3,0-0.5,0-0.8,0c-1.8,0-1.9,2.4-0.4,2.9c3,1.1,5.7,1.9,8.9,1.5
					c1.9-0.3,1.1-3.2-0.8-2.9c-2.5,0.4-5-0.6-7.3-1.5c-0.1,1-0.3,2-0.4,2.9c0.3,0,0.5,0,0.8,0c1.6,0,2.1-2.7,0.4-2.9
					c-0.7-0.1-1.3-0.3-1.9-0.5c-0.3,0.9-0.5,1.9-0.8,2.8c0.3,0,0.7,0,1,0c1.6-0.1,2.1-2.6,0.4-2.9c-0.3-0.1-0.6-0.1-0.9-0.2
					C113.2,238.4,112.4,241.3,114.3,241.7L114.3,241.7z"/>
			</g>
		</g>
		<g>
			<g>
				<path d="M124.2,244.1c4.3,0.2,8.4-1,12-3.5c1.6-1.1,0.1-3.7-1.5-2.6c-3.1,2.2-6.6,3.2-10.5,3.1C122.3,241,122.3,244,124.2,244.1
					L124.2,244.1z"/>
			</g>
		</g>
		<g>
			<g>
				<path d="M133.7,239.5c0.7,0.9,1.5,1.4,2.6,1.4c1.1,0,2.2-0.6,3.2-1c1.9-0.7,1.1-3.2-0.8-2.9c0.2,0,0-0.1-0.2-0.2
					c-1.4-1-3.1,1.2-1.8,2.4c0.9,0.8,1.9,1.1,3,0.8c0.8-0.2,1.3-1.1,1-1.8c-0.2-0.8-1-1.2-1.8-1c-0.1,0-0.3,0-0.4,0.1
					c-0.8,0.1-1.2,1.1-1,1.8c0.2,0.8,1,1.2,1.8,1c0.1,0,0.3,0,0.4-0.1c-0.3-1-0.5-1.9-0.8-2.9c-0.1,0,0,0.1-0.1,0
					c-0.6,0.8-1.2,1.6-1.8,2.4c0.7,0.6,1.6,0.6,2.5,0.5c-0.3-1-0.5-1.9-0.8-2.9c-0.6,0.2-1.1,0.4-1.7,0.6c-0.2,0.1-0.9,0.2-0.8,0.3
					c-0.5-0.6-1.3-1-2.1-0.5C133.6,237.8,133.2,238.8,133.7,239.5L133.7,239.5z"/>
			</g>
		</g>
		<g>
			<g>
				<path d="M138.2,237.2c0.5,0.5,1.1,0.7,1.8,0.6c-0.1-0.2-0.1-0.5-0.2-0.7c-0.4,0.1-0.8,0.1-0.8-0.5c-0.2,0-0.5,0-0.8,0
					c0,0.5,0.1,1,0.5,1.3c0.5,0.3,1.1,0.1,1.5-0.2c0.3-0.2,0.1-0.9-0.3-0.7c-0.4,0.1-0.6,0.1-1-0.1c0,0.2,0,0.4,0,0.6c0,0,0,0,0.1,0
					c0.2-0.2,0.2-0.4,0.1-0.6c-0.3-0.3-0.6-0.4-1.1-0.4c-0.5,0.1-0.3,0.8,0.2,0.7c0.2,0,0.3,0,0.3,0.2c0-0.2,0.1-0.4,0.1-0.6
					c0,0,0,0-0.1,0c-0.2,0.2-0.2,0.5,0,0.6c0.5,0.3,1,0.4,1.5,0.2c-0.1-0.2-0.2-0.5-0.3-0.7c-0.2,0.1-0.5,0.4-0.8,0.1
					c-0.2-0.1-0.1-0.4-0.1-0.6c0-0.5-0.7-0.5-0.8,0c0,1.1,0.8,1.4,1.7,1.2c0.5-0.1,0.3-0.8-0.2-0.7c-0.4,0.1-0.8-0.1-1.1-0.4
					C138.4,236.3,137.9,236.9,138.2,237.2L138.2,237.2z"/>
			</g>
		</g>
		</symbol>
    </defs>
</svg>